<?xml version="1.0" encoding="UTF-8"?>
<!DOCTYPE svg PUBLIC "-//W3C//DTD SVG 1.1//EN" "http://www.w3.org/Graphics/SVG/1.1/DTD/svg11.dtd">
<svg xmlns="http://www.w3.org/2000/svg" xmlns:xlink="http://www.w3.org/1999/xlink" version="1.1" width="1030px" height="470px" viewBox="-0.5 -0.5 1030 470"><defs/><g><g data-cell-id="0"><g data-cell-id="1"><g data-cell-id="__bg"><g><rect x="0" y="0" width="1028" height="468" fill="#0c1222" stroke="none" pointer-events="all"/></g></g><g data-cell-id="c1"><g><rect x="304" y="24" width="420" height="70" rx="8.4" ry="8.4" fill="#0d1b2a" stroke="#94a3b8" stroke-width="1.5" pointer-events="all"/></g><g><g transform="translate(-0.5 -0.5)"><switch><foreignObject pointer-events="none" width="100%" height="100%" requiredFeatures="http://www.w3.org/TR/SVG11/feature#Extensibility" style="overflow: visible; text-align: left;"><div xmlns="http://www.w3.org/1999/xhtml" style="display: flex; align-items: unsafe center; justify-content: unsafe center; width: 410px; height: 1px; padding-top: 62px; margin-left: 309px;"><div data-drawio-colors="color: #e2e8f0; " style="box-sizing: border-box; font-size: 0px; text-align: center;"><div style="display: inline-block; font-size: 13px; font-family: Helvetica; color: rgb(226, 232, 240); line-height: 1.2; pointer-events: all; font-weight: bold; white-space: normal; overflow-wrap: normal;">MANAGEMENT DOMAIN (GPU-FREE)</div></div></div></foreignObject><text x="514" y="66" fill="#e2e8f0" font-family="&quot;Helvetica&quot;" font-size="13px" text-anchor="middle" font-weight="bold">MANAGEMENT DOMAIN (GPU-FREE)</text></switch></g></g></g><g data-cell-id="c2"><g><rect x="264" y="154" width="500" height="90" rx="10.8" ry="10.8" fill="#132239" stroke="#38bdf8" stroke-width="1.5" pointer-events="all"/></g><g><g transform="translate(-0.5 -0.5)"><switch><foreignObject pointer-events="none" width="100%" height="100%" requiredFeatures="http://www.w3.org/TR/SVG11/feature#Extensibility" style="overflow: visible; text-align: left;"><div xmlns="http://www.w3.org/1999/xhtml" style="display: flex; align-items: unsafe center; justify-content: unsafe center; width: 490px; height: 1px; padding-top: 216px; margin-left: 269px;"><div data-drawio-colors="color: #e2e8f0; " style="box-sizing: border-box; font-size: 0px; text-align: center;"><div style="display: inline-block; font-size: 12px; font-family: Helvetica; color: rgb(226, 232, 240); line-height: 1.2; pointer-events: all; font-weight: bold; white-space: normal; overflow-wrap: normal;">GPU-ENABLED VI WORKLOAD DOMAIN<br /><br />GPU ESX hosts, NSX Edge, Supervisor</div></div></div></foreignObject><text x="514" y="220" fill="#e2e8f0" font-family="&quot;Helvetica&quot;" font-size="12px" text-anchor="middle" font-weight="bold">GPU-ENABLED VI WORKLOAD DOMAIN...</text></switch></g></g></g><g data-cell-id="c3"><g><path d="M 502 162 L 502 163.25 L 502 186 L 526 186 L 526 162 Z M 502.65 164.5 L 525.35 164.5 L 525.35 183.5 L 502.65 183.5 Z M 514.9 166.32 L 514.9 167.57 L 514.9 181.6 L 522.25 181.6 L 522.25 166.32 Z M 504.62 166.36 L 504.62 167.61 L 504.62 181.64 L 511.95 181.64 L 511.95 166.36 Z M 515.55 168.82 L 521.59 168.82 L 521.59 172.72 L 515.55 172.72 Z M 505.27 168.86 L 511.29 168.86 L 511.29 172.72 L 505.27 172.72 Z M 513.44 169.67 C 512.82 169.67 512.32 171.61 512.32 173.98 C 512.32 176.35 512.82 178.29 513.44 178.29 C 514.06 178.29 514.57 176.35 514.57 173.98 C 514.57 171.61 514.06 169.67 513.44 169.67 Z M 522.59 171.32 L 522.59 172.57 L 522.59 178.1 L 525.15 178.1 L 525.15 171.32 Z M 503.58 172.05 C 503.2 172.05 502.9 173.22 502.9 174.65 C 502.9 176.08 503.2 177.24 503.58 177.24 C 503.95 177.24 504.25 176.08 504.25 174.65 C 504.25 173.22 503.95 172.05 503.58 172.05 Z M 513.44 172.16 C 513.71 172.16 513.92 172.96 513.92 173.98 C 513.92 175 513.71 175.8 513.44 175.8 C 513.18 175.8 512.97 175 512.97 173.98 C 512.97 172.96 513.18 172.16 513.44 172.16 Z M 523.24 173.81 L 524.5 173.81 L 524.5 175.6 L 523.24 175.6 Z M 505.27 175.22 L 511.29 175.22 L 511.29 179.14 L 505.27 179.14 Z M 515.55 175.22 L 521.59 175.22 L 521.59 179.1 L 515.55 179.1 Z" fill="#38bdf8" stroke="none" pointer-events="all"/></g></g><g data-cell-id="c4"><g><rect x="24" y="344" width="300" height="100" rx="12" ry="12" fill="#132239" stroke="#38bdf8" stroke-width="1.5" pointer-events="all"/></g><g><g transform="translate(-0.5 -0.5)"><switch><foreignObject pointer-events="none" width="100%" height="100%" requiredFeatures="http://www.w3.org/TR/SVG11/feature#Extensibility" style="overflow: visible; text-align: left;"><div xmlns="http://www.w3.org/1999/xhtml" style="display: flex; align-items: unsafe center; justify-content: unsafe center; width: 290px; height: 1px; padding-top: 397px; margin-left: 29px;"><div data-drawio-colors="color: #e2e8f0; " style="box-sizing: border-box; font-size: 0px; text-align: center;"><div style="display: inline-block; font-size: 12px; font-family: Helvetica; color: rgb(226, 232, 240); line-height: 1.2; pointer-events: all; font-weight: bold; white-space: normal; overflow-wrap: normal;">Deep Learning VMs<br /><br />(NGC-based)<br />Fastest way to validate the<br />GPU stack end to end</div></div></div></foreignObject><text x="174" y="401" fill="#e2e8f0" font-family="&quot;Helvetica&quot;" font-size="12px" text-anchor="middle" font-weight="bold">Deep Learning VMs...</text></switch></g></g></g><g data-cell-id="c5"><g><rect x="364" y="344" width="300" height="100" rx="12" ry="12" fill="#132239" stroke="#a78bfa" stroke-width="1.5" pointer-events="all"/></g><g><g transform="translate(-0.5 -0.5)"><switch><foreignObject pointer-events="none" width="100%" height="100%" requiredFeatures="http://www.w3.org/TR/SVG11/feature#Extensibility" style="overflow: visible; text-align: left;"><div xmlns="http://www.w3.org/1999/xhtml" style="display: flex; align-items: unsafe center; justify-content: unsafe center; width: 290px; height: 1px; padding-top: 397px; margin-left: 369px;"><div data-drawio-colors="color: #e2e8f0; " style="box-sizing: border-box; font-size: 0px; text-align: center;"><div style="display: inline-block; font-size: 12px; font-family: Helvetica; color: rgb(226, 232, 240); line-height: 1.2; pointer-events: all; font-weight: bold; white-space: normal; overflow-wrap: normal;">Private AI Services<br /><br />Model Gallery + Model Runtime<br />Vector DB / RAG managed for you</div></div></div></foreignObject><text x="514" y="401" fill="#e2e8f0" font-family="&quot;Helvetica&quot;" font-size="12px" text-anchor="middle" font-weight="bold">Private AI Services...</text></switch></g></g></g><g data-cell-id="c6"><g><rect x="704" y="344" width="300" height="100" rx="12" ry="12" fill="#132239" stroke="#38bdf8" stroke-width="1.5" pointer-events="all"/></g><g><g transform="translate(-0.5 -0.5)"><switch><foreignObject pointer-events="none" width="100%" height="100%" requiredFeatures="http://www.w3.org/TR/SVG11/feature#Extensibility" style="overflow: visible; text-align: left;"><div xmlns="http://www.w3.org/1999/xhtml" style="display: flex; align-items: unsafe center; justify-content: unsafe center; width: 290px; height: 1px; padding-top: 397px; margin-left: 709px;"><div data-drawio-colors="color: #e2e8f0; " style="box-sizing: border-box; font-size: 0px; text-align: center;"><div style="display: inline-block; font-size: 12px; font-family: Helvetica; color: rgb(226, 232, 240); line-height: 1.2; pointer-events: all; font-weight: bold; white-space: normal; overflow-wrap: normal;">GPU-accelerated VKS<br /><br />AI Kubernetes Cluster catalog item<br />NVIDIA GPU Operator on workers<br />vGPU or DirectPath I/O</div></div></div></foreignObject><text x="854" y="401" fill="#e2e8f0" font-family="&quot;Helvetica&quot;" font-size="12px" text-anchor="middle" font-weight="bold">GPU-accelerated VKS...</text></switch></g></g></g><g data-cell-id="c7"><g><path d="M 514 94 L 514 143.76" fill="none" stroke="#38bdf8" stroke-width="2" stroke-miterlimit="10" pointer-events="stroke"/><path d="M 514 151.76 L 511.33 143.76 L 516.67 143.76 Z" fill="#38bdf8" stroke="#38bdf8" stroke-width="2" stroke-miterlimit="10" pointer-events="all"/></g></g><g data-cell-id="c8"><g><path d="M 314 244 L 314 284 Q 314 294 304 294 L 184 294 Q 174 294 174 304 L 174 333.76" fill="none" stroke="#38bdf8" stroke-width="2" stroke-miterlimit="10" pointer-events="stroke"/><path d="M 174 341.76 L 171.33 333.76 L 176.67 333.76 Z" fill="#38bdf8" stroke="#38bdf8" stroke-width="2" stroke-miterlimit="10" pointer-events="all"/></g></g><g data-cell-id="c9"><g><path d="M 514 244 L 514 333.76" fill="none" stroke="#38bdf8" stroke-width="2" stroke-miterlimit="10" pointer-events="stroke"/><path d="M 514 341.76 L 511.33 333.76 L 516.67 333.76 Z" fill="#38bdf8" stroke="#38bdf8" stroke-width="2" stroke-miterlimit="10" pointer-events="all"/></g></g><g data-cell-id="c10"><g><path d="M 714 244 L 714 284 Q 714 294 724 294 L 844 294 Q 854 294 854 304 L 854 333.76" fill="none" stroke="#38bdf8" stroke-width="2" stroke-miterlimit="10" pointer-events="stroke"/><path d="M 854 341.76 L 851.33 333.76 L 856.67 333.76 Z" fill="#38bdf8" stroke="#38bdf8" stroke-width="2" stroke-miterlimit="10" pointer-events="all"/></g></g><g data-cell-id="__margin_tl"><g><rect x="0" y="0" width="1" height="1" fill="none" stroke="none" pointer-events="all"/></g></g><g data-cell-id="__margin_br"><g><rect x="1028" y="468" width="1" height="1" fill="none" stroke="none" pointer-events="all"/></g></g></g></g></g><switch><g requiredFeatures="http://www.w3.org/TR/SVG11/feature#Extensibility"/><a transform="translate(0,-5)" xlink:href="https://www.drawio.com/doc/faq/svg-export-text-problems" target="_blank"><text text-anchor="middle" font-size="10px" x="50%" y="100%">Text is not SVG - cannot display</text></a></switch></svg>