<?xml version="1.0" encoding="UTF-8"?>
<!DOCTYPE svg PUBLIC "-//W3C//DTD SVG 1.1//EN" "http://www.w3.org/Graphics/SVG/1.1/DTD/svg11.dtd">
<svg xmlns="http://www.w3.org/2000/svg" xmlns:xlink="http://www.w3.org/1999/xlink" version="1.1" width="1080px" height="560px" viewBox="-0.5 -0.5 1080 560"><defs/><g><g data-cell-id="0"><g data-cell-id="1"><g data-cell-id="__bg"><g><rect x="0" y="0" width="1078" height="558" fill="#0c1222" stroke="none" pointer-events="all"/></g></g><g data-cell-id="c1"><g><rect x="24" y="24" width="1030" height="170" rx="10.2" ry="10.2" fill="none" stroke="#a78bfa" stroke-dasharray="3 3" pointer-events="all"/></g><g><g transform="translate(-0.5 -0.5)"><switch><foreignObject pointer-events="none" width="100%" height="100%" requiredFeatures="http://www.w3.org/TR/SVG11/feature#Extensibility" style="overflow: visible; text-align: left;"><div xmlns="http://www.w3.org/1999/xhtml" style="display: flex; align-items: unsafe flex-start; justify-content: unsafe flex-start; width: 1016px; height: 1px; padding-top: 37px; margin-left: 32px;"><div data-drawio-colors="color: #94a3b8; " style="box-sizing: border-box; font-size: 0px; text-align: left;"><div style="display: inline-block; font-size: 12px; font-family: Helvetica; color: rgb(148, 163, 184); line-height: 1.2; pointer-events: all; font-style: italic; white-space: normal; overflow-wrap: normal;">VCF OPERATIONS (Management Plane)</div></div></div></foreignObject><text x="32" y="49" fill="#94a3b8" font-family="&quot;Helvetica&quot;" font-size="12px" font-style="italic">VCF OPERATIONS (Management Plane)</text></switch></g></g></g><g data-cell-id="c2"><g><rect x="64" y="64" width="300" height="60" rx="7.2" ry="7.2" fill="#132239" stroke="#38bdf8" stroke-width="1.5" pointer-events="all"/></g><g><g transform="translate(-0.5 -0.5)"><switch><foreignObject pointer-events="none" width="100%" height="100%" requiredFeatures="http://www.w3.org/TR/SVG11/feature#Extensibility" style="overflow: visible; text-align: left;"><div xmlns="http://www.w3.org/1999/xhtml" style="display: flex; align-items: unsafe center; justify-content: unsafe center; width: 290px; height: 1px; padding-top: 97px; margin-left: 69px;"><div data-drawio-colors="color: #e2e8f0; " style="box-sizing: border-box; font-size: 0px; text-align: center;"><div style="display: inline-block; font-size: 12px; font-family: Helvetica; color: rgb(226, 232, 240); line-height: 1.2; pointer-events: all; font-weight: bold; white-space: normal; overflow-wrap: normal;">Fleet Mgmt<br /><br />All Domains</div></div></div></foreignObject><text x="214" y="101" fill="#e2e8f0" font-family="&quot;Helvetica&quot;" font-size="12px" text-anchor="middle" font-weight="bold">Fleet Mgmt...</text></switch></g></g></g><g data-cell-id="c3"><g><rect x="394" y="64" width="300" height="60" rx="7.2" ry="7.2" fill="#132239" stroke="#38bdf8" stroke-width="1.5" pointer-events="all"/></g><g><g transform="translate(-0.5 -0.5)"><switch><foreignObject pointer-events="none" width="100%" height="100%" requiredFeatures="http://www.w3.org/TR/SVG11/feature#Extensibility" style="overflow: visible; text-align: left;"><div xmlns="http://www.w3.org/1999/xhtml" style="display: flex; align-items: unsafe center; justify-content: unsafe center; width: 290px; height: 1px; padding-top: 97px; margin-left: 399px;"><div data-drawio-colors="color: #e2e8f0; " style="box-sizing: border-box; font-size: 0px; text-align: center;"><div style="display: inline-block; font-size: 12px; font-family: Helvetica; color: rgb(226, 232, 240); line-height: 1.2; pointer-events: all; font-weight: bold; white-space: normal; overflow-wrap: normal;">Lifecycle Mgmt<br /><br />All Components</div></div></div></foreignObject><text x="544" y="101" fill="#e2e8f0" font-family="&quot;Helvetica&quot;" font-size="12px" text-anchor="middle" font-weight="bold">Lifecycle Mgmt...</text></switch></g></g></g><g data-cell-id="c4"><g><rect x="724" y="64" width="300" height="60" rx="7.2" ry="7.2" fill="#132239" stroke="#38bdf8" stroke-width="1.5" pointer-events="all"/></g><g><g transform="translate(-0.5 -0.5)"><switch><foreignObject pointer-events="none" width="100%" height="100%" requiredFeatures="http://www.w3.org/TR/SVG11/feature#Extensibility" style="overflow: visible; text-align: left;"><div xmlns="http://www.w3.org/1999/xhtml" style="display: flex; align-items: unsafe center; justify-content: unsafe center; width: 290px; height: 1px; padding-top: 97px; margin-left: 729px;"><div data-drawio-colors="color: #e2e8f0; " style="box-sizing: border-box; font-size: 0px; text-align: center;"><div style="display: inline-block; font-size: 12px; font-family: Helvetica; color: rgb(226, 232, 240); line-height: 1.2; pointer-events: all; font-weight: bold; white-space: normal; overflow-wrap: normal;">Cost &amp; Capacity Management</div></div></div></foreignObject><text x="874" y="101" fill="#e2e8f0" font-family="&quot;Helvetica&quot;" font-size="12px" text-anchor="middle" font-weight="bold">Cost &amp; Capacity Management</text></switch></g></g></g><g data-cell-id="c5"><g><rect x="24" y="234" width="320" height="100" rx="12" ry="12" fill="#132239" stroke="#38bdf8" stroke-width="1.5" pointer-events="all"/></g><g><g transform="translate(-0.5 -0.5)"><switch><foreignObject pointer-events="none" width="100%" height="100%" requiredFeatures="http://www.w3.org/TR/SVG11/feature#Extensibility" style="overflow: visible; text-align: left;"><div xmlns="http://www.w3.org/1999/xhtml" style="display: flex; align-items: unsafe center; justify-content: unsafe center; width: 310px; height: 1px; padding-top: 301px; margin-left: 29px;"><div data-drawio-colors="color: #e2e8f0; " style="box-sizing: border-box; font-size: 0px; text-align: center;"><div style="display: inline-block; font-size: 12px; font-family: Helvetica; color: rgb(226, 232, 240); line-height: 1.2; pointer-events: all; font-weight: bold; white-space: normal; overflow-wrap: normal;">Management Domain<br /><br />vCenter (Mgmt), NSX (Mgmt),<br />vSAN (Mgmt) - Mgmt VMs only</div></div></div></foreignObject><text x="184" y="305" fill="#e2e8f0" font-family="&quot;Helvetica&quot;" font-size="12px" text-anchor="middle" font-weight="bold">Management Domain...</text></switch></g></g></g><g data-cell-id="c6"><g><path d="M 182.22 242 C 180.17 242 178.51 243.61 178.51 245.59 L 178.51 248.24 L 175.67 248.24 C 173.65 248.24 172 249.83 172 251.79 L 172 262.45 C 172 264.41 173.65 266 175.67 266 L 185.83 266 C 187.85 266 189.5 264.41 189.5 262.45 L 189.5 259.65 L 192.29 259.65 C 194.34 259.65 196 258.04 196 256.07 L 196 245.59 C 196 243.61 194.34 242 192.29 242 Z M 182.22 242.87 L 192.29 242.87 C 193.85 242.87 195.1 244.07 195.1 245.59 L 195.1 256.07 C 195.1 257.58 193.85 258.78 192.29 258.78 L 189.06 258.78 C 188.78 258.78 188.6 258.99 188.6 259.25 L 188.6 262.45 C 188.6 263.94 187.37 265.13 185.83 265.13 L 175.67 265.13 C 174.13 265.13 172.9 263.94 172.9 262.45 L 172.9 251.79 C 172.9 250.3 174.13 249.11 175.67 249.11 L 178.94 249.11 C 179.27 249.11 179.41 248.89 179.41 248.61 L 179.41 245.59 C 179.41 244.07 180.66 242.87 182.22 242.87 Z M 184.47 247.46 C 184.13 247.46 183.86 247.73 183.86 248.06 L 183.86 253.62 C 183.86 253.65 183.86 253.68 183.87 253.71 C 183.8 253.69 183.72 253.68 183.65 253.68 L 178.31 253.68 C 177.94 253.68 177.64 253.97 177.64 254.32 L 177.64 259.82 C 177.64 260.18 177.94 260.47 178.31 260.47 L 183.65 260.47 C 184.02 260.47 184.32 260.18 184.32 259.82 L 184.32 254.32 C 184.32 254.28 184.31 254.23 184.3 254.19 C 184.35 254.2 184.41 254.21 184.47 254.21 L 189.88 254.21 C 190.22 254.21 190.49 253.95 190.49 253.62 L 190.49 248.06 C 190.49 247.73 190.22 247.46 189.88 247.46 Z" fill="#38bdf8" stroke="none" pointer-events="all"/></g></g><g data-cell-id="c7"><g><rect x="374" y="234" width="320" height="100" rx="12" ry="12" fill="#132239" stroke="#38bdf8" stroke-width="1.5" pointer-events="all"/></g><g><g transform="translate(-0.5 -0.5)"><switch><foreignObject pointer-events="none" width="100%" height="100%" requiredFeatures="http://www.w3.org/TR/SVG11/feature#Extensibility" style="overflow: visible; text-align: left;"><div xmlns="http://www.w3.org/1999/xhtml" style="display: flex; align-items: unsafe center; justify-content: unsafe center; width: 310px; height: 1px; padding-top: 301px; margin-left: 379px;"><div data-drawio-colors="color: #e2e8f0; " style="box-sizing: border-box; font-size: 0px; text-align: center;"><div style="display: inline-block; font-size: 12px; font-family: Helvetica; color: rgb(226, 232, 240); line-height: 1.2; pointer-events: all; font-weight: bold; white-space: normal; overflow-wrap: normal;">Workload Domain A<br /><br />vCenter, NSX (shared/ded.),<br />vSAN/NFS/FC - VPC workloads</div></div></div></foreignObject><text x="534" y="305" fill="#e2e8f0" font-family="&quot;Helvetica&quot;" font-size="12px" text-anchor="middle" font-weight="bold">Workload Domain A...</text></switch></g></g></g><g data-cell-id="c8"><g><path d="M 532.22 242 C 530.17 242 528.51 243.61 528.51 245.59 L 528.51 248.24 L 525.67 248.24 C 523.65 248.24 522 249.83 522 251.79 L 522 262.45 C 522 264.41 523.65 266 525.67 266 L 535.83 266 C 537.85 266 539.5 264.41 539.5 262.45 L 539.5 259.65 L 542.29 259.65 C 544.34 259.65 546 258.04 546 256.07 L 546 245.59 C 546 243.61 544.34 242 542.29 242 Z M 532.22 242.87 L 542.29 242.87 C 543.85 242.87 545.1 244.07 545.1 245.59 L 545.1 256.07 C 545.1 257.58 543.85 258.78 542.29 258.78 L 539.06 258.78 C 538.78 258.78 538.6 258.99 538.6 259.25 L 538.6 262.45 C 538.6 263.94 537.37 265.13 535.83 265.13 L 525.67 265.13 C 524.13 265.13 522.9 263.94 522.9 262.45 L 522.9 251.79 C 522.9 250.3 524.13 249.11 525.67 249.11 L 528.94 249.11 C 529.27 249.11 529.41 248.89 529.41 248.61 L 529.41 245.59 C 529.41 244.07 530.66 242.87 532.22 242.87 Z M 534.47 247.46 C 534.13 247.46 533.86 247.73 533.86 248.06 L 533.86 253.62 C 533.86 253.65 533.86 253.68 533.87 253.71 C 533.8 253.69 533.72 253.68 533.65 253.68 L 528.31 253.68 C 527.94 253.68 527.64 253.97 527.64 254.32 L 527.64 259.82 C 527.64 260.18 527.94 260.47 528.31 260.47 L 533.65 260.47 C 534.02 260.47 534.32 260.18 534.32 259.82 L 534.32 254.32 C 534.32 254.28 534.31 254.23 534.3 254.19 C 534.35 254.2 534.41 254.21 534.47 254.21 L 539.88 254.21 C 540.22 254.21 540.49 253.95 540.49 253.62 L 540.49 248.06 C 540.49 247.73 540.22 247.46 539.88 247.46 Z" fill="#38bdf8" stroke="none" pointer-events="all"/></g></g><g data-cell-id="c9"><g><rect x="724" y="234" width="320" height="100" rx="12" ry="12" fill="#132239" stroke="#38bdf8" stroke-width="1.5" pointer-events="all"/></g><g><g transform="translate(-0.5 -0.5)"><switch><foreignObject pointer-events="none" width="100%" height="100%" requiredFeatures="http://www.w3.org/TR/SVG11/feature#Extensibility" style="overflow: visible; text-align: left;"><div xmlns="http://www.w3.org/1999/xhtml" style="display: flex; align-items: unsafe center; justify-content: unsafe center; width: 310px; height: 1px; padding-top: 301px; margin-left: 729px;"><div data-drawio-colors="color: #e2e8f0; " style="box-sizing: border-box; font-size: 0px; text-align: center;"><div style="display: inline-block; font-size: 12px; font-family: Helvetica; color: rgb(226, 232, 240); line-height: 1.2; pointer-events: all; font-weight: bold; white-space: normal; overflow-wrap: normal;">Workload Domain B<br /><br />vCenter, NSX (shared/ded.),<br />vSAN/NFS/FC - VPC workloads</div></div></div></foreignObject><text x="884" y="305" fill="#e2e8f0" font-family="&quot;Helvetica&quot;" font-size="12px" text-anchor="middle" font-weight="bold">Workload Domain B...</text></switch></g></g></g><g data-cell-id="c10"><g><path d="M 882.22 242 C 880.17 242 878.51 243.61 878.51 245.59 L 878.51 248.24 L 875.67 248.24 C 873.65 248.24 872 249.83 872 251.79 L 872 262.45 C 872 264.41 873.65 266 875.67 266 L 885.83 266 C 887.85 266 889.5 264.41 889.5 262.45 L 889.5 259.65 L 892.29 259.65 C 894.34 259.65 896 258.04 896 256.07 L 896 245.59 C 896 243.61 894.34 242 892.29 242 Z M 882.22 242.87 L 892.29 242.87 C 893.85 242.87 895.1 244.07 895.1 245.59 L 895.1 256.07 C 895.1 257.58 893.85 258.78 892.29 258.78 L 889.06 258.78 C 888.78 258.78 888.6 258.99 888.6 259.25 L 888.6 262.45 C 888.6 263.94 887.37 265.13 885.83 265.13 L 875.67 265.13 C 874.13 265.13 872.9 263.94 872.9 262.45 L 872.9 251.79 C 872.9 250.3 874.13 249.11 875.67 249.11 L 878.94 249.11 C 879.27 249.11 879.41 248.89 879.41 248.61 L 879.41 245.59 C 879.41 244.07 880.66 242.87 882.22 242.87 Z M 884.47 247.46 C 884.13 247.46 883.86 247.73 883.86 248.06 L 883.86 253.62 C 883.86 253.65 883.86 253.68 883.87 253.71 C 883.8 253.69 883.72 253.68 883.65 253.68 L 878.31 253.68 C 877.94 253.68 877.64 253.97 877.64 254.32 L 877.64 259.82 C 877.64 260.18 877.94 260.47 878.31 260.47 L 883.65 260.47 C 884.02 260.47 884.32 260.18 884.32 259.82 L 884.32 254.32 C 884.32 254.28 884.31 254.23 884.3 254.19 C 884.35 254.2 884.41 254.21 884.47 254.21 L 889.88 254.21 C 890.22 254.21 890.49 253.95 890.49 253.62 L 890.49 248.06 C 890.49 247.73 890.22 247.46 889.88 247.46 Z" fill="#38bdf8" stroke="none" pointer-events="all"/></g></g><g data-cell-id="c11"><g><path d="M 424 124 L 424 169 Q 424 179 414 179 L 194 179 Q 184 179 184 189 L 184 223.76" fill="none" stroke="#38bdf8" stroke-width="2" stroke-miterlimit="10" pointer-events="stroke"/><path d="M 184 231.76 L 181.33 223.76 L 186.67 223.76 Z" fill="#38bdf8" stroke="#38bdf8" stroke-width="2" stroke-miterlimit="10" pointer-events="all"/></g></g><g data-cell-id="c12"><g><path d="M 534 124 L 534 223.76" fill="none" stroke="#38bdf8" stroke-width="2" stroke-miterlimit="10" pointer-events="stroke"/><path d="M 534 231.76 L 531.33 223.76 L 536.67 223.76 Z" fill="#38bdf8" stroke="#38bdf8" stroke-width="2" stroke-miterlimit="10" pointer-events="all"/></g></g><g data-cell-id="c13"><g><path d="M 664 124 L 664 169 Q 664 179 674 179 L 874 179 Q 884 179 884 189 L 884 223.76" fill="none" stroke="#38bdf8" stroke-width="2" stroke-miterlimit="10" pointer-events="stroke"/><path d="M 884 231.76 L 881.33 223.76 L 886.67 223.76 Z" fill="#38bdf8" stroke="#38bdf8" stroke-width="2" stroke-miterlimit="10" pointer-events="all"/></g></g><g data-cell-id="c14"><g><rect x="374" y="384" width="320" height="60" rx="7.2" ry="7.2" fill="#132239" stroke="#38bdf8" stroke-width="1.5" pointer-events="all"/></g><g><g transform="translate(-0.5 -0.5)"><switch><foreignObject pointer-events="none" width="100%" height="100%" requiredFeatures="http://www.w3.org/TR/SVG11/feature#Extensibility" style="overflow: visible; text-align: left;"><div xmlns="http://www.w3.org/1999/xhtml" style="display: flex; align-items: unsafe center; justify-content: unsafe center; width: 310px; height: 1px; padding-top: 417px; margin-left: 379px;"><div data-drawio-colors="color: #e2e8f0; " style="box-sizing: border-box; font-size: 0px; text-align: center;"><div style="display: inline-block; font-size: 12px; font-family: Helvetica; color: rgb(226, 232, 240); line-height: 1.2; pointer-events: all; font-weight: bold; white-space: normal; overflow-wrap: normal;">Transit Gateway<br /><br />Centralized or Distributed</div></div></div></foreignObject><text x="534" y="421" fill="#e2e8f0" font-family="&quot;Helvetica&quot;" font-size="12px" text-anchor="middle" font-weight="bold">Transit Gateway...</text></switch></g></g></g><g data-cell-id="c15"><g><rect x="304" y="474" width="200" height="60" rx="7.2" ry="7.2" fill="#132239" stroke="#38bdf8" stroke-width="1.5" pointer-events="all"/></g><g><g transform="translate(-0.5 -0.5)"><switch><foreignObject pointer-events="none" width="100%" height="100%" requiredFeatures="http://www.w3.org/TR/SVG11/feature#Extensibility" style="overflow: visible; text-align: left;"><div xmlns="http://www.w3.org/1999/xhtml" style="display: flex; align-items: unsafe center; justify-content: unsafe center; width: 190px; height: 1px; padding-top: 507px; margin-left: 309px;"><div data-drawio-colors="color: #e2e8f0; " style="box-sizing: border-box; font-size: 0px; text-align: center;"><div style="display: inline-block; font-size: 12px; font-family: Helvetica; color: rgb(226, 232, 240); line-height: 1.2; pointer-events: all; font-weight: bold; white-space: normal; overflow-wrap: normal;">VPC-1 (Tenant A)</div></div></div></foreignObject><text x="404" y="511" fill="#e2e8f0" font-family="&quot;Helvetica&quot;" font-size="12px" text-anchor="middle" font-weight="bold">VPC-1 (Tenant A)</text></switch></g></g></g><g data-cell-id="c16"><g><rect x="564" y="474" width="200" height="60" rx="7.2" ry="7.2" fill="#132239" stroke="#38bdf8" stroke-width="1.5" pointer-events="all"/></g><g><g transform="translate(-0.5 -0.5)"><switch><foreignObject pointer-events="none" width="100%" height="100%" requiredFeatures="http://www.w3.org/TR/SVG11/feature#Extensibility" style="overflow: visible; text-align: left;"><div xmlns="http://www.w3.org/1999/xhtml" style="display: flex; align-items: unsafe center; justify-content: unsafe center; width: 190px; height: 1px; padding-top: 507px; margin-left: 569px;"><div data-drawio-colors="color: #e2e8f0; " style="box-sizing: border-box; font-size: 0px; text-align: center;"><div style="display: inline-block; font-size: 12px; font-family: Helvetica; color: rgb(226, 232, 240); line-height: 1.2; pointer-events: all; font-weight: bold; white-space: normal; overflow-wrap: normal;">VPC-2 (Tenant B)</div></div></div></foreignObject><text x="664" y="511" fill="#e2e8f0" font-family="&quot;Helvetica&quot;" font-size="12px" text-anchor="middle" font-weight="bold">VPC-2 (Tenant B)</text></switch></g></g></g><g data-cell-id="c17"><g><path d="M 534 334 L 534 373.76" fill="none" stroke="#38bdf8" stroke-width="2" stroke-miterlimit="10" pointer-events="stroke"/><path d="M 534 381.76 L 531.33 373.76 L 536.67 373.76 Z" fill="#38bdf8" stroke="#38bdf8" stroke-width="2" stroke-miterlimit="10" pointer-events="all"/></g><g><g transform="translate(-0.5 -0.5)"><switch><foreignObject pointer-events="none" width="100%" height="100%" requiredFeatures="http://www.w3.org/TR/SVG11/feature#Extensibility" style="overflow: visible; text-align: left;"><div xmlns="http://www.w3.org/1999/xhtml" style="display: flex; align-items: unsafe center; justify-content: unsafe center; width: 1px; height: 1px; padding-top: 359px; margin-left: 534px;"><div data-drawio-colors="color: #e2e8f0; background-color: #0c1222; " style="box-sizing: border-box; font-size: 0px; text-align: center;"><div style="display: inline-block; font-size: 11px; font-family: Helvetica; color: rgb(226, 232, 240); line-height: 1.2; pointer-events: all; background-color: rgb(12, 18, 34); white-space: nowrap;">NSX VPC Networking</div></div></div></foreignObject><text x="534" y="362" fill="#e2e8f0" font-family="&quot;Helvetica&quot;" font-size="11px" text-anchor="middle">NSX VPC Networking</text></switch></g></g></g><g data-cell-id="c18"><g><path d="M 756 334 L 756 349 Q 756 359 746 359 L 544 359 Q 534 359 534 366.38 L 534 373.76" fill="none" stroke="#38bdf8" stroke-width="2" stroke-miterlimit="10" pointer-events="stroke"/><path d="M 534 381.76 L 531.33 373.76 L 536.67 373.76 Z" fill="#38bdf8" stroke="#38bdf8" stroke-width="2" stroke-miterlimit="10" pointer-events="all"/></g></g><g data-cell-id="c19"><g><path d="M 406 444 L 405 444 Q 404 444 404 453.88 L 404 463.76" fill="none" stroke="#38bdf8" stroke-width="2" stroke-miterlimit="10" pointer-events="stroke"/><path d="M 404 471.76 L 401.33 463.76 L 406.67 463.76 Z" fill="#38bdf8" stroke="#38bdf8" stroke-width="2" stroke-miterlimit="10" pointer-events="all"/></g></g><g data-cell-id="c20"><g><path d="M 662 444 L 663 444 Q 664 444 664 453.88 L 664 463.76" fill="none" stroke="#38bdf8" stroke-width="2" stroke-miterlimit="10" pointer-events="stroke"/><path d="M 664 471.76 L 661.33 463.76 L 666.67 463.76 Z" fill="#38bdf8" stroke="#38bdf8" stroke-width="2" stroke-miterlimit="10" pointer-events="all"/></g></g><g data-cell-id="__margin_tl"><g><rect x="0" y="0" width="1" height="1" fill="none" stroke="none" pointer-events="all"/></g></g><g data-cell-id="__margin_br"><g><rect x="1078" y="558" width="1" height="1" fill="none" stroke="none" pointer-events="all"/></g></g></g></g></g><switch><g requiredFeatures="http://www.w3.org/TR/SVG11/feature#Extensibility"/><a transform="translate(0,-5)" xlink:href="https://www.drawio.com/doc/faq/svg-export-text-problems" target="_blank"><text text-anchor="middle" font-size="10px" x="50%" y="100%">Text is not SVG - cannot display</text></a></switch></svg>