<?xml version="1.0" encoding="UTF-8"?>
<!DOCTYPE svg PUBLIC "-//W3C//DTD SVG 1.1//EN" "http://www.w3.org/Graphics/SVG/1.1/DTD/svg11.dtd">
<svg xmlns="http://www.w3.org/2000/svg" xmlns:xlink="http://www.w3.org/1999/xlink" version="1.1" width="900px" height="345px" viewBox="-0.5 -0.5 900 345"><defs/><g><g data-cell-id="0"><g data-cell-id="1"><g data-cell-id="__bg"><g><rect x="0" y="0" width="898" height="343" fill="#0c1222" stroke="none" pointer-events="all"/></g></g><g data-cell-id="c1"><g><rect x="124" y="24" width="700" height="40" rx="4.8" ry="4.8" fill="none" stroke="#94a3b8" stroke-width="1.5" pointer-events="all"/></g><g><g transform="translate(-0.5 -0.5)"><switch><foreignObject pointer-events="none" width="100%" height="100%" requiredFeatures="http://www.w3.org/TR/SVG11/feature#Extensibility" style="overflow: visible; text-align: left;"><div xmlns="http://www.w3.org/1999/xhtml" style="display: flex; align-items: unsafe center; justify-content: unsafe center; width: 690px; height: 1px; padding-top: 47px; margin-left: 129px;"><div data-drawio-colors="color: #e2e8f0; " style="box-sizing: border-box; font-size: 0px; text-align: center;"><div style="display: inline-block; font-size: 12px; font-family: Helvetica; color: rgb(226, 232, 240); line-height: 1.2; pointer-events: all; white-space: normal; overflow-wrap: normal;">VCF INSTANCE - up to 25 total domains (1 mgmt + 24 VI workload)</div></div></div></foreignObject><text x="474" y="51" fill="#e2e8f0" font-family="&quot;Helvetica&quot;" font-size="12px" text-anchor="middle">VCF INSTANCE - up to 25 total domains (1 mgmt + 24 VI workload)</text></switch></g></g></g><g data-cell-id="c2"><g><rect x="24" y="99" width="180" height="60" rx="7.2" ry="7.2" fill="#132239" stroke="#38bdf8" stroke-width="1.5" pointer-events="all"/></g><g><g transform="translate(-0.5 -0.5)"><switch><foreignObject pointer-events="none" width="100%" height="100%" requiredFeatures="http://www.w3.org/TR/SVG11/feature#Extensibility" style="overflow: visible; text-align: left;"><div xmlns="http://www.w3.org/1999/xhtml" style="display: flex; align-items: unsafe center; justify-content: unsafe center; width: 170px; height: 1px; padding-top: 132px; margin-left: 29px;"><div data-drawio-colors="color: #e2e8f0; " style="box-sizing: border-box; font-size: 0px; text-align: center;"><div style="display: inline-block; font-size: 13px; font-family: Helvetica; color: rgb(226, 232, 240); line-height: 1.2; pointer-events: all; font-weight: bold; white-space: normal; overflow-wrap: normal;">DOMAIN A</div></div></div></foreignObject><text x="114" y="136" fill="#e2e8f0" font-family="&quot;Helvetica&quot;" font-size="13px" text-anchor="middle" font-weight="bold">DOMAIN A</text></switch></g></g></g><g data-cell-id="c3"><g><rect x="234" y="99" width="180" height="60" rx="7.2" ry="7.2" fill="#132239" stroke="#38bdf8" stroke-width="1.5" pointer-events="all"/></g><g><g transform="translate(-0.5 -0.5)"><switch><foreignObject pointer-events="none" width="100%" height="100%" requiredFeatures="http://www.w3.org/TR/SVG11/feature#Extensibility" style="overflow: visible; text-align: left;"><div xmlns="http://www.w3.org/1999/xhtml" style="display: flex; align-items: unsafe center; justify-content: unsafe center; width: 170px; height: 1px; padding-top: 132px; margin-left: 239px;"><div data-drawio-colors="color: #e2e8f0; " style="box-sizing: border-box; font-size: 0px; text-align: center;"><div style="display: inline-block; font-size: 13px; font-family: Helvetica; color: rgb(226, 232, 240); line-height: 1.2; pointer-events: all; font-weight: bold; white-space: normal; overflow-wrap: normal;">DOMAIN B</div></div></div></foreignObject><text x="324" y="136" fill="#e2e8f0" font-family="&quot;Helvetica&quot;" font-size="13px" text-anchor="middle" font-weight="bold">DOMAIN B</text></switch></g></g></g><g data-cell-id="c4"><g><rect x="444" y="99" width="180" height="60" rx="7.2" ry="7.2" fill="#132239" stroke="#38bdf8" stroke-width="1.5" pointer-events="all"/></g><g><g transform="translate(-0.5 -0.5)"><switch><foreignObject pointer-events="none" width="100%" height="100%" requiredFeatures="http://www.w3.org/TR/SVG11/feature#Extensibility" style="overflow: visible; text-align: left;"><div xmlns="http://www.w3.org/1999/xhtml" style="display: flex; align-items: unsafe center; justify-content: unsafe center; width: 170px; height: 1px; padding-top: 132px; margin-left: 449px;"><div data-drawio-colors="color: #e2e8f0; " style="box-sizing: border-box; font-size: 0px; text-align: center;"><div style="display: inline-block; font-size: 13px; font-family: Helvetica; color: rgb(226, 232, 240); line-height: 1.2; pointer-events: all; font-weight: bold; white-space: normal; overflow-wrap: normal;">DOMAIN C</div></div></div></foreignObject><text x="534" y="136" fill="#e2e8f0" font-family="&quot;Helvetica&quot;" font-size="13px" text-anchor="middle" font-weight="bold">DOMAIN C</text></switch></g></g></g><g data-cell-id="c5"><g><rect x="654" y="99" width="180" height="60" rx="7.2" ry="7.2" fill="#132239" stroke="#38bdf8" stroke-width="1.5" pointer-events="all"/></g><g><g transform="translate(-0.5 -0.5)"><switch><foreignObject pointer-events="none" width="100%" height="100%" requiredFeatures="http://www.w3.org/TR/SVG11/feature#Extensibility" style="overflow: visible; text-align: left;"><div xmlns="http://www.w3.org/1999/xhtml" style="display: flex; align-items: unsafe center; justify-content: unsafe center; width: 170px; height: 1px; padding-top: 132px; margin-left: 659px;"><div data-drawio-colors="color: #e2e8f0; " style="box-sizing: border-box; font-size: 0px; text-align: center;"><div style="display: inline-block; font-size: 13px; font-family: Helvetica; color: rgb(226, 232, 240); line-height: 1.2; pointer-events: all; font-weight: bold; white-space: normal; overflow-wrap: normal;">DOMAIN D</div></div></div></foreignObject><text x="744" y="136" fill="#e2e8f0" font-family="&quot;Helvetica&quot;" font-size="13px" text-anchor="middle" font-weight="bold">DOMAIN D</text></switch></g></g></g><g data-cell-id="c6"><g><rect x="24" y="229" width="400" height="90" rx="10.8" ry="10.8" fill="#132239" stroke="#38bdf8" stroke-width="1.5" pointer-events="all"/></g><g><g transform="translate(-0.5 -0.5)"><switch><foreignObject pointer-events="none" width="100%" height="100%" requiredFeatures="http://www.w3.org/TR/SVG11/feature#Extensibility" style="overflow: visible; text-align: left;"><div xmlns="http://www.w3.org/1999/xhtml" style="display: flex; align-items: unsafe center; justify-content: unsafe center; width: 390px; height: 1px; padding-top: 291px; margin-left: 29px;"><div data-drawio-colors="color: #e2e8f0; " style="box-sizing: border-box; font-size: 0px; text-align: center;"><div style="display: inline-block; font-size: 12px; font-family: Helvetica; color: rgb(226, 232, 240); line-height: 1.2; pointer-events: all; font-weight: bold; white-space: normal; overflow-wrap: normal;">SHARED NSX MANAGER INSTANCE<br /><br />lower footprint, shared lifecycle &amp; blast radius</div></div></div></foreignObject><text x="224" y="295" fill="#e2e8f0" font-family="&quot;Helvetica&quot;" font-size="12px" text-anchor="middle" font-weight="bold">SHARED NSX MANAGER INSTANCE...</text></switch></g></g></g><g data-cell-id="c7"><g><path d="M 213.77 237 C 212.8 237 212 237.8 212 238.77 L 212 259.23 C 212 260.2 212.8 261 213.77 261 L 234.23 261 C 235.2 261 236 260.2 236 259.23 L 236 238.77 C 236 237.8 235.2 237 234.23 237 Z M 213.77 237.89 L 234.23 237.89 C 234.72 237.89 235.11 238.28 235.11 238.77 L 235.11 259.23 C 235.11 259.72 234.72 260.11 234.23 260.11 L 213.77 260.11 C 213.28 260.11 212.89 259.72 212.89 259.23 L 212.89 238.77 C 212.89 238.28 213.28 237.89 213.77 237.89 Z M 216.2 239.84 C 215.95 239.85 215.76 240.05 215.76 240.3 L 215.76 255.38 L 214.91 255.38 C 214.75 255.38 214.6 255.47 214.52 255.61 C 214.44 255.74 214.44 255.91 214.52 256.05 C 214.6 256.19 214.75 256.28 214.91 256.28 L 215.76 256.28 L 215.76 257.73 C 215.76 257.98 215.96 258.18 216.21 258.18 C 216.45 258.18 216.65 257.98 216.65 257.73 L 216.65 256.28 L 217.51 256.28 C 217.67 256.28 217.81 256.19 217.89 256.05 C 217.97 255.91 217.97 255.74 217.89 255.61 C 217.81 255.47 217.67 255.38 217.51 255.38 L 216.65 255.38 L 216.65 240.3 C 216.66 240.18 216.61 240.06 216.52 239.97 C 216.44 239.89 216.32 239.84 216.2 239.84 Z M 221.29 239.84 C 221.04 239.85 220.84 240.05 220.84 240.3 L 220.84 249.01 L 219.99 249.01 C 219.83 249.01 219.68 249.09 219.59 249.23 C 219.51 249.37 219.51 249.55 219.59 249.69 C 219.68 249.83 219.83 249.91 219.99 249.91 L 220.84 249.91 L 220.84 257.73 C 220.84 257.89 220.93 258.04 221.07 258.12 C 221.21 258.2 221.38 258.2 221.52 258.12 C 221.65 258.04 221.74 257.89 221.74 257.73 L 221.74 249.91 L 222.59 249.91 C 222.76 249.91 222.91 249.83 222.99 249.69 C 223.07 249.55 223.07 249.37 222.99 249.23 C 222.91 249.09 222.76 249.01 222.59 249.01 L 221.74 249.01 L 221.74 240.3 C 221.74 240.18 221.69 240.06 221.61 239.97 C 221.52 239.89 221.41 239.84 221.29 239.84 Z M 226.4 239.84 C 226.15 239.85 225.95 240.05 225.96 240.3 L 225.96 252.34 L 225.08 252.34 C 224.83 252.34 224.63 252.54 224.63 252.79 C 224.63 253.03 224.83 253.23 225.08 253.23 L 225.96 253.23 L 225.96 257.73 C 225.95 257.9 226.04 258.05 226.18 258.13 C 226.32 258.21 226.49 258.21 226.63 258.13 C 226.77 258.05 226.86 257.9 226.85 257.73 L 226.85 253.23 L 227.68 253.23 C 227.92 253.23 228.12 253.03 228.12 252.79 C 228.12 252.54 227.92 252.34 227.68 252.34 L 226.85 252.34 L 226.85 240.3 C 226.85 240.18 226.81 240.06 226.72 239.97 C 226.64 239.89 226.52 239.84 226.4 239.84 Z M 231.57 239.84 C 231.32 239.85 231.12 240.05 231.13 240.3 L 231.13 242.87 L 230.16 242.87 C 229.91 242.87 229.71 243.07 229.71 243.32 C 229.71 243.56 229.91 243.76 230.16 243.76 L 231.13 243.76 L 231.13 257.73 C 231.13 257.89 231.21 258.04 231.35 258.12 C 231.49 258.2 231.66 258.2 231.8 258.12 C 231.94 258.04 232.02 257.89 232.02 257.73 L 232.02 243.76 L 232.76 243.76 C 233.01 243.76 233.21 243.56 233.21 243.32 C 233.21 243.07 233.01 242.87 232.76 242.87 L 232.02 242.87 L 232.02 240.3 C 232.02 240.18 231.98 240.06 231.89 239.97 C 231.81 239.89 231.69 239.84 231.57 239.84 Z" fill="#38bdf8" stroke="none" pointer-events="all"/></g></g><g data-cell-id="c8"><g><rect x="524" y="229" width="350" height="90" rx="10.8" ry="10.8" fill="#132239" stroke="#38bdf8" stroke-width="1.5" pointer-events="all"/></g><g><g transform="translate(-0.5 -0.5)"><switch><foreignObject pointer-events="none" width="100%" height="100%" requiredFeatures="http://www.w3.org/TR/SVG11/feature#Extensibility" style="overflow: visible; text-align: left;"><div xmlns="http://www.w3.org/1999/xhtml" style="display: flex; align-items: unsafe center; justify-content: unsafe center; width: 340px; height: 1px; padding-top: 291px; margin-left: 529px;"><div data-drawio-colors="color: #e2e8f0; " style="box-sizing: border-box; font-size: 0px; text-align: center;"><div style="display: inline-block; font-size: 12px; font-family: Helvetica; color: rgb(226, 232, 240); line-height: 1.2; pointer-events: all; font-weight: bold; white-space: normal; overflow-wrap: normal;">DEDICATED NSX MANAGER<br /><br />own cluster, independent scaling &amp; lifecycle</div></div></div></foreignObject><text x="699" y="295" fill="#e2e8f0" font-family="&quot;Helvetica&quot;" font-size="12px" text-anchor="middle" font-weight="bold">DEDICATED NSX MANAGER...</text></switch></g></g></g><g data-cell-id="c9"><g><path d="M 688.77 237 C 687.8 237 687 237.8 687 238.77 L 687 259.23 C 687 260.2 687.8 261 688.77 261 L 709.23 261 C 710.2 261 711 260.2 711 259.23 L 711 238.77 C 711 237.8 710.2 237 709.23 237 Z M 688.77 237.89 L 709.23 237.89 C 709.72 237.89 710.11 238.28 710.11 238.77 L 710.11 259.23 C 710.11 259.72 709.72 260.11 709.23 260.11 L 688.77 260.11 C 688.28 260.11 687.89 259.72 687.89 259.23 L 687.89 238.77 C 687.89 238.28 688.28 237.89 688.77 237.89 Z M 691.2 239.84 C 690.95 239.85 690.76 240.05 690.76 240.3 L 690.76 255.38 L 689.91 255.38 C 689.75 255.38 689.6 255.47 689.52 255.61 C 689.44 255.74 689.44 255.91 689.52 256.05 C 689.6 256.19 689.75 256.28 689.91 256.28 L 690.76 256.28 L 690.76 257.73 C 690.76 257.89 690.84 258.04 690.98 258.12 C 691.12 258.2 691.29 258.2 691.43 258.12 C 691.57 258.04 691.65 257.89 691.65 257.73 L 691.65 256.28 L 692.51 256.28 C 692.67 256.28 692.81 256.19 692.89 256.05 C 692.97 255.91 692.97 255.74 692.89 255.61 C 692.81 255.47 692.67 255.38 692.51 255.38 L 691.65 255.38 L 691.65 240.3 C 691.66 240.18 691.61 240.06 691.52 239.97 C 691.44 239.89 691.32 239.84 691.2 239.84 Z M 696.29 239.84 C 696.04 239.85 695.84 240.05 695.84 240.3 L 695.84 249.01 L 694.99 249.01 C 694.83 249.01 694.68 249.09 694.59 249.23 C 694.51 249.37 694.51 249.55 694.59 249.69 C 694.68 249.83 694.83 249.91 694.99 249.91 L 695.84 249.91 L 695.84 257.73 C 695.84 257.98 696.04 258.18 696.29 258.18 C 696.54 258.18 696.74 257.98 696.74 257.73 L 696.74 249.91 L 697.59 249.91 C 697.76 249.91 697.91 249.83 697.99 249.69 C 698.07 249.55 698.07 249.37 697.99 249.23 C 697.91 249.09 697.76 249.01 697.59 249.01 L 696.74 249.01 L 696.74 240.3 C 696.74 240.18 696.69 240.06 696.61 239.97 C 696.52 239.89 696.41 239.84 696.29 239.84 Z M 701.4 239.84 C 701.15 239.85 700.95 240.05 700.96 240.3 L 700.96 252.34 L 700.08 252.34 C 699.83 252.34 699.63 252.54 699.63 252.79 C 699.63 253.03 699.83 253.23 700.08 253.23 L 700.96 253.23 L 700.96 257.73 C 700.95 257.9 701.04 258.05 701.18 258.13 C 701.32 258.21 701.49 258.21 701.63 258.13 C 701.77 258.05 701.86 257.9 701.85 257.73 L 701.85 253.23 L 702.68 253.23 C 702.92 253.23 703.12 253.03 703.12 252.79 C 703.12 252.54 702.92 252.34 702.68 252.34 L 701.85 252.34 L 701.85 240.3 C 701.85 240.18 701.81 240.06 701.72 239.97 C 701.64 239.89 701.52 239.84 701.4 239.84 Z M 706.57 239.84 C 706.32 239.85 706.12 240.05 706.13 240.3 L 706.13 242.87 L 705.16 242.87 C 704.91 242.87 704.71 243.07 704.71 243.32 C 704.71 243.56 704.91 243.76 705.16 243.76 L 706.13 243.76 L 706.13 257.73 C 706.13 257.89 706.21 258.04 706.35 258.12 C 706.49 258.2 706.66 258.2 706.8 258.12 C 706.94 258.04 707.02 257.89 707.02 257.73 L 707.02 243.76 L 707.76 243.76 C 708.01 243.76 708.21 243.56 708.21 243.32 C 708.21 243.07 708.01 242.87 707.76 242.87 L 707.02 242.87 L 707.02 240.3 C 707.02 240.18 706.98 240.06 706.89 239.97 C 706.81 239.89 706.69 239.84 706.57 239.84 Z" fill="#38bdf8" stroke="none" pointer-events="all"/></g></g><g data-cell-id="c10"><g><path d="M 186 159 L 186 184 Q 186 194 196 194 L 214 194 Q 224 194 224 204 L 224 218.76" fill="none" stroke="#38bdf8" stroke-width="2" stroke-miterlimit="10" pointer-events="stroke"/><path d="M 224 226.76 L 221.33 218.76 L 226.67 218.76 Z" fill="#38bdf8" stroke="#38bdf8" stroke-width="2" stroke-miterlimit="10" pointer-events="all"/></g></g><g data-cell-id="c11"><g><path d="M 252 159 L 252 184 Q 252 194 242 194 L 233 194 Q 224 194 224 204 L 224 218.76" fill="none" stroke="#38bdf8" stroke-width="2" stroke-miterlimit="10" pointer-events="stroke"/><path d="M 224 226.76 L 221.33 218.76 L 226.67 218.76 Z" fill="#38bdf8" stroke="#38bdf8" stroke-width="2" stroke-miterlimit="10" pointer-events="all"/></g></g><g data-cell-id="c12"><g><path d="M 699 159 L 699 218.76" fill="none" stroke="#38bdf8" stroke-width="2" stroke-miterlimit="10" pointer-events="stroke"/><path d="M 699 226.76 L 696.33 218.76 L 701.67 218.76 Z" fill="#38bdf8" stroke="#38bdf8" stroke-width="2" stroke-miterlimit="10" pointer-events="all"/></g></g><g data-cell-id="__margin_tl"><g><rect x="0" y="0" width="1" height="1" fill="none" stroke="none" pointer-events="all"/></g></g><g data-cell-id="__margin_br"><g><rect x="898" y="343" width="1" height="1" fill="none" stroke="none" pointer-events="all"/></g></g></g></g></g><switch><g requiredFeatures="http://www.w3.org/TR/SVG11/feature#Extensibility"/><a transform="translate(0,-5)" xlink:href="https://www.drawio.com/doc/faq/svg-export-text-problems" target="_blank"><text text-anchor="middle" font-size="10px" x="50%" y="100%">Text is not SVG - cannot display</text></a></switch></svg>