<?xml version="1.0" encoding="UTF-8"?>
<!DOCTYPE svg PUBLIC "-//W3C//DTD SVG 1.1//EN" "http://www.w3.org/Graphics/SVG/1.1/DTD/svg11.dtd">
<svg xmlns="http://www.w3.org/2000/svg" xmlns:xlink="http://www.w3.org/1999/xlink" version="1.1" width="700px" height="620px" viewBox="-0.5 -0.5 700 620"><defs/><g><g data-cell-id="0"><g data-cell-id="1"><g data-cell-id="__bg"><g><rect x="0" y="0" width="698" height="618" fill="#0c1222" stroke="none" pointer-events="all"/></g></g><g data-cell-id="c1"><g><rect x="84" y="24" width="530" height="90" rx="10.8" ry="10.8" fill="#0d1b2a" stroke="#94a3b8" stroke-width="1.5" pointer-events="all"/></g><g><g transform="translate(-0.5 -0.5)"><switch><foreignObject pointer-events="none" width="100%" height="100%" requiredFeatures="http://www.w3.org/TR/SVG11/feature#Extensibility" style="overflow: visible; text-align: left;"><div xmlns="http://www.w3.org/1999/xhtml" style="display: flex; align-items: unsafe center; justify-content: unsafe center; width: 520px; height: 1px; padding-top: 72px; margin-left: 89px;"><div data-drawio-colors="color: #e2e8f0; " style="box-sizing: border-box; font-size: 0px; text-align: center;"><div style="display: inline-block; font-size: 12px; font-family: Helvetica; color: rgb(226, 232, 240); line-height: 1.2; pointer-events: all; font-weight: bold; white-space: normal; overflow-wrap: normal;">PRODUCTION (PROTECTED INSTANCE)<br /><br />suspected compromised</div></div></div></foreignObject><text x="349" y="76" fill="#e2e8f0" font-family="&quot;Helvetica&quot;" font-size="12px" text-anchor="middle" font-weight="bold">PRODUCTION (PROTECTED INSTANCE)...</text></switch></g></g></g><g data-cell-id="c2"><g><rect x="24" y="194" width="650" height="100" rx="12" ry="12" fill="#132239" stroke="#a78bfa" stroke-width="1.5" pointer-events="all"/></g><g><g transform="translate(-0.5 -0.5)"><switch><foreignObject pointer-events="none" width="100%" height="100%" requiredFeatures="http://www.w3.org/TR/SVG11/feature#Extensibility" style="overflow: visible; text-align: left;"><div xmlns="http://www.w3.org/1999/xhtml" style="display: flex; align-items: unsafe center; justify-content: unsafe center; width: 640px; height: 1px; padding-top: 261px; margin-left: 29px;"><div data-drawio-colors="color: #e2e8f0; " style="box-sizing: border-box; font-size: 0px; text-align: center;"><div style="display: inline-block; font-size: 12px; font-family: Helvetica; color: rgb(226, 232, 240); line-height: 1.2; pointer-events: all; font-weight: bold; white-space: normal; overflow-wrap: normal;">ISOLATED RECOVERY ENVIRONMENT (IRE)<br /><br />vSAN ESA cluster, NSX Tier-1, DFW isolation script</div></div></div></foreignObject><text x="349" y="265" fill="#e2e8f0" font-family="&quot;Helvetica&quot;" font-size="12px" text-anchor="middle" font-weight="bold">ISOLATED RECOVERY ENVIRONMENT (IRE)...</text></switch></g></g></g><g data-cell-id="c3"><g><path d="M 349 203.14 L 338.15 208.57 L 338.15 219.41 L 338.31 219.49 L 349 224.87 L 359.84 219.41 L 359.84 208.57 Z M 348.67 203.96 L 348.67 209.09 C 346.55 209.16 344.92 209.95 344.92 210.9 C 344.92 211.39 345.35 211.85 346.12 212.19 C 346.88 212.54 347.92 212.73 349 212.73 C 351.25 212.73 353.07 211.91 353.07 210.9 C 353.07 209.95 351.44 209.16 349.33 209.09 L 349.33 203.96 L 358.83 208.73 L 353.08 211.61 L 353.05 211.94 C 352.86 212.52 351.44 213.43 348.99 213.43 C 346.66 213.43 345.04 212.58 344.93 211.78 L 344.91 211.61 L 339.14 208.74 Z M 359.18 209.21 L 359.18 218.75 L 353.09 215.71 L 353.07 215.99 C 352.93 216.57 351.5 217.54 348.99 217.54 C 346.67 217.54 345.06 216.69 344.93 215.89 L 344.92 215.83 C 344.92 215.83 344.92 215.83 344.92 215.83 C 344.92 215.81 344.92 215.8 344.92 215.79 L 344.92 215.82 L 344.9 215.7 L 338.81 218.75 L 338.81 209.23 L 344.93 212.29 L 344.94 212.96 C 344.94 214.03 346.88 214.77 349 214.77 C 351.49 214.77 353.08 213.83 353.08 212.98 L 353.08 212.26 Z M 344.92 213.75 L 344.94 215.03 C 344.94 216.09 346.88 216.83 349 216.83 C 351.49 216.83 353.08 215.89 353.08 215.04 L 353.08 213.86 C 353.08 214.42 351.63 215.49 348.99 215.49 C 346.57 215.49 344.92 214.57 344.92 213.75 Z M 344.93 216.34 L 344.94 217.07 C 344.94 218.07 346.68 218.8 348.67 218.87 L 348.67 224.04 L 339.13 219.25 Z M 353.08 216.36 L 358.85 219.25 L 349.33 224.04 L 349.33 218.87 C 351.63 218.79 353.08 217.89 353.08 217.09 Z M 348.87 202.06 L 348.41 202.29 L 348.66 202.67 L 348.99 202.51 L 349.29 202.65 L 349.54 202.27 L 349.12 202.06 L 348.99 202 Z M 349.72 202.87 L 350.6 203.31 L 350.85 202.93 L 349.98 202.49 Z M 347.1 202.95 L 347.35 203.33 L 348.22 202.89 L 347.97 202.51 Z M 351.04 203.53 L 351.91 203.97 L 352.17 203.59 L 351.29 203.15 Z M 345.78 203.61 L 346.03 203.99 L 346.91 203.55 L 346.66 203.17 Z M 352.35 204.19 L 353.23 204.63 L 353.48 204.25 L 352.61 203.81 Z M 344.47 204.27 L 344.72 204.65 L 345.6 204.21 L 345.34 203.83 Z M 353.67 204.85 L 354.54 205.29 L 354.8 204.91 L 353.92 204.47 Z M 343.15 204.93 L 343.41 205.31 L 344.28 204.87 L 344.03 204.49 Z M 354.98 205.51 L 355.86 205.95 L 356.11 205.57 L 355.23 205.13 Z M 341.84 205.59 L 342.09 205.97 L 342.97 205.53 L 342.72 205.15 Z M 356.3 206.16 L 357.17 206.6 L 357.43 206.22 L 356.55 205.78 Z M 340.53 206.25 L 340.78 206.63 L 341.65 206.19 L 341.4 205.81 Z M 357.61 206.82 L 358.49 207.26 L 358.74 206.88 L 357.86 206.44 Z M 339.21 206.91 L 339.46 207.29 L 340.34 206.85 L 340.09 206.47 Z M 358.93 207.48 L 359.8 207.92 L 360.05 207.54 L 359.18 207.1 Z M 337.9 207.56 L 338.15 207.94 L 339.03 207.5 L 338.77 207.13 Z M 360.24 208.14 L 360.49 208.27 L 360.49 208.64 L 361 208.64 L 361 208.14 L 361 208.01 L 360.87 207.95 L 360.49 207.76 Z M 337.13 207.95 L 337 208.01 L 337 208.14 L 337 208.69 L 337.51 208.69 L 337.51 208.27 L 337.71 208.16 L 337.46 207.78 Z M 360.49 209.95 L 361 209.95 L 361 209.07 L 360.49 209.07 Z M 337 210 L 337.51 210 L 337.51 209.12 L 337 209.12 Z M 360.49 211.27 L 361 211.27 L 361 210.39 L 360.49 210.39 Z M 337 211.32 L 337.51 211.32 L 337.51 210.44 L 337 210.44 Z M 360.49 212.58 L 361 212.58 L 361 211.71 L 360.49 211.71 Z M 337 212.63 L 337.51 212.63 L 337.51 211.76 L 337 211.76 Z M 360.49 213.9 L 361 213.9 L 361 213.02 L 360.49 213.02 Z M 337 213.95 L 337.51 213.95 L 337.51 213.07 L 337 213.07 Z M 360.49 215.21 L 361 215.21 L 361 214.34 L 360.49 214.34 Z M 337 215.26 L 337.51 215.26 L 337.51 214.39 L 337 214.39 Z M 360.49 216.53 L 361 216.53 L 361 215.65 L 360.49 215.65 Z M 337 216.58 L 337.51 216.58 L 337.51 215.7 L 337 215.7 Z M 360.49 217.85 L 361 217.85 L 361 216.97 L 360.49 216.97 Z M 337 217.9 L 337.51 217.9 L 337.51 217.02 L 337 217.02 Z M 360.49 219.16 L 361 219.16 L 361 218.28 L 360.49 218.28 Z M 337 219.21 L 337.51 219.21 L 337.51 218.33 L 337 218.33 Z M 360.49 219.74 L 360.01 219.98 L 360.26 220.36 L 360.87 220.06 L 361 220 L 361 219.87 L 361 219.6 L 360.49 219.6 Z M 337 219.87 L 337.25 219.87 L 337.13 220.06 L 337.22 220.11 L 337.38 219.87 L 337.51 219.87 L 337.51 219.65 L 337 219.65 Z M 337.66 220.33 L 338.54 220.77 L 338.79 220.39 L 337.91 219.95 Z M 358.7 220.64 L 358.95 221.02 L 359.83 220.58 L 359.57 220.2 Z M 338.98 220.98 L 339.85 221.42 L 340.11 221.04 L 339.23 220.6 Z M 357.38 221.3 L 357.64 221.68 L 358.51 221.24 L 358.26 220.86 Z M 340.29 221.64 L 341.17 222.08 L 341.42 221.7 L 340.54 221.26 Z M 356.07 221.96 L 356.32 222.34 L 357.2 221.9 L 356.94 221.52 Z M 341.6 222.3 L 342.48 222.74 L 342.73 222.36 L 341.86 221.92 Z M 354.75 222.61 L 355.01 222.99 L 355.88 222.56 L 355.63 222.18 Z M 342.92 222.96 L 343.8 223.4 L 344.05 223.02 L 343.17 222.58 Z M 353.44 223.27 L 353.69 223.65 L 354.57 223.21 L 354.31 222.83 Z M 344.23 223.62 L 345.11 224.06 L 345.36 223.68 L 344.49 223.24 Z M 352.12 223.93 L 352.38 224.31 L 353.25 223.87 L 353 223.49 Z M 345.55 224.28 L 346.42 224.71 L 346.68 224.33 L 345.8 223.9 Z M 350.81 224.59 L 351.06 224.97 L 351.94 224.53 L 351.68 224.15 Z M 346.86 224.93 L 347.74 225.37 L 347.99 224.99 L 347.12 224.55 Z M 349.49 225.24 L 349.75 225.62 L 350.62 225.19 L 350.37 224.81 Z M 348.18 225.59 L 348.87 225.94 L 348.99 226 L 349.12 225.94 L 349.31 225.84 L 349.12 225.56 L 349.12 225.56 L 349.12 225.56 L 349.05 225.46 L 348.99 225.49 L 348.43 225.21 Z" fill="#38bdf8" stroke="none" pointer-events="all"/></g></g><g data-cell-id="c4"><g><rect x="214" y="374" width="270" height="70" rx="8.4" ry="8.4" fill="#132239" stroke="#38bdf8" stroke-width="1.5" pointer-events="all"/></g><g><g transform="translate(-0.5 -0.5)"><switch><foreignObject pointer-events="none" width="100%" height="100%" requiredFeatures="http://www.w3.org/TR/SVG11/feature#Extensibility" style="overflow: visible; text-align: left;"><div xmlns="http://www.w3.org/1999/xhtml" style="display: flex; align-items: unsafe center; justify-content: unsafe center; width: 260px; height: 1px; padding-top: 412px; margin-left: 219px;"><div data-drawio-colors="color: #e2e8f0; " style="box-sizing: border-box; font-size: 0px; text-align: center;"><div style="display: inline-block; font-size: 13px; font-family: Helvetica; color: rgb(226, 232, 240); line-height: 1.2; pointer-events: all; font-weight: bold; white-space: normal; overflow-wrap: normal;">STAGING</div></div></div></foreignObject><text x="349" y="416" fill="#e2e8f0" font-family="&quot;Helvetica&quot;" font-size="13px" text-anchor="middle" font-weight="bold">STAGING</text></switch></g></g></g><g data-cell-id="c5"><g><rect x="24" y="514" width="650" height="80" rx="9.6" ry="9.6" fill="#132239" stroke="#38bdf8" stroke-width="1.5" pointer-events="all"/></g><g><g transform="translate(-0.5 -0.5)"><switch><foreignObject pointer-events="none" width="100%" height="100%" requiredFeatures="http://www.w3.org/TR/SVG11/feature#Extensibility" style="overflow: visible; text-align: left;"><div xmlns="http://www.w3.org/1999/xhtml" style="display: flex; align-items: unsafe center; justify-content: unsafe center; width: 640px; height: 1px; padding-top: 557px; margin-left: 29px;"><div data-drawio-colors="color: #e2e8f0; " style="box-sizing: border-box; font-size: 0px; text-align: center;"><div style="display: inline-block; font-size: 12px; font-family: Helvetica; color: rgb(226, 232, 240); line-height: 1.2; pointer-events: all; font-weight: bold; white-space: normal; overflow-wrap: normal;">RECOVERED, THEN REPROTECT<br /><br />and fail back once production is clean</div></div></div></foreignObject><text x="349" y="561" fill="#e2e8f0" font-family="&quot;Helvetica&quot;" font-size="12px" text-anchor="middle" font-weight="bold">RECOVERED, THEN REPROTECT...</text></switch></g></g></g><g data-cell-id="c6"><g><path d="M 349 114 L 349 183.76" fill="none" stroke="#38bdf8" stroke-width="2" stroke-miterlimit="10" pointer-events="stroke"/><path d="M 349 191.76 L 346.33 183.76 L 351.67 183.76 Z" fill="#38bdf8" stroke="#38bdf8" stroke-width="2" stroke-miterlimit="10" pointer-events="all"/></g><g><g transform="translate(-0.5 -0.5)"><switch><foreignObject pointer-events="none" width="100%" height="100%" requiredFeatures="http://www.w3.org/TR/SVG11/feature#Extensibility" style="overflow: visible; text-align: left;"><div xmlns="http://www.w3.org/1999/xhtml" style="display: flex; align-items: unsafe center; justify-content: unsafe center; width: 1px; height: 1px; padding-top: 154px; margin-left: 349px;"><div data-drawio-colors="color: #e2e8f0; background-color: #0c1222; " style="box-sizing: border-box; font-size: 0px; text-align: center;"><div style="display: inline-block; font-size: 11px; font-family: Helvetica; color: rgb(226, 232, 240); line-height: 1.2; pointer-events: all; background-color: rgb(12, 18, 34); white-space: nowrap;">replication (own VLAN)</div></div></div></foreignObject><text x="349" y="157" fill="#e2e8f0" font-family="&quot;Helvetica&quot;" font-size="11px" text-anchor="middle">replication (own VLAN)</text></switch></g></g></g><g data-cell-id="c7"><g><path d="M 349 294 L 349 363.76" fill="none" stroke="#38bdf8" stroke-width="2" stroke-miterlimit="10" pointer-events="stroke"/><path d="M 349 371.76 L 346.33 363.76 L 351.67 363.76 Z" fill="#38bdf8" stroke="#38bdf8" stroke-width="2" stroke-miterlimit="10" pointer-events="all"/></g><g><g transform="translate(-0.5 -0.5)"><switch><foreignObject pointer-events="none" width="100%" height="100%" requiredFeatures="http://www.w3.org/TR/SVG11/feature#Extensibility" style="overflow: visible; text-align: left;"><div xmlns="http://www.w3.org/1999/xhtml" style="display: flex; align-items: unsafe center; justify-content: unsafe center; width: 1px; height: 1px; padding-top: 334px; margin-left: 349px;"><div data-drawio-colors="color: #e2e8f0; background-color: #0c1222; " style="box-sizing: border-box; font-size: 0px; text-align: center;"><div style="display: inline-block; font-size: 11px; font-family: Helvetica; color: rgb(226, 232, 240); line-height: 1.2; pointer-events: all; background-color: rgb(12, 18, 34); white-space: nowrap;">validate (EDR / CrowdStrike Falcon)</div></div></div></foreignObject><text x="349" y="337" fill="#e2e8f0" font-family="&quot;Helvetica&quot;" font-size="11px" text-anchor="middle">validate (EDR / CrowdStrike Falcon)</text></switch></g></g></g><g data-cell-id="c8"><g><path d="M 349 444 L 349 503.76" fill="none" stroke="#38bdf8" stroke-width="2" stroke-miterlimit="10" pointer-events="stroke"/><path d="M 349 511.76 L 346.33 503.76 L 351.67 503.76 Z" fill="#38bdf8" stroke="#38bdf8" stroke-width="2" stroke-miterlimit="10" pointer-events="all"/></g><g><g transform="translate(-0.5 -0.5)"><switch><foreignObject pointer-events="none" width="100%" height="100%" requiredFeatures="http://www.w3.org/TR/SVG11/feature#Extensibility" style="overflow: visible; text-align: left;"><div xmlns="http://www.w3.org/1999/xhtml" style="display: flex; align-items: unsafe center; justify-content: unsafe center; width: 1px; height: 1px; padding-top: 479px; margin-left: 349px;"><div data-drawio-colors="color: #e2e8f0; background-color: #0c1222; " style="box-sizing: border-box; font-size: 0px; text-align: center;"><div style="display: inline-block; font-size: 11px; font-family: Helvetica; color: rgb(226, 232, 240); line-height: 1.2; pointer-events: all; background-color: rgb(12, 18, 34); white-space: nowrap;">recover at secondary site</div></div></div></foreignObject><text x="349" y="482" fill="#e2e8f0" font-family="&quot;Helvetica&quot;" font-size="11px" text-anchor="middle">recover at secondary site</text></switch></g></g></g><g data-cell-id="__margin_tl"><g><rect x="0" y="0" width="1" height="1" fill="none" stroke="none" pointer-events="all"/></g></g><g data-cell-id="__margin_br"><g><rect x="698" y="618" width="1" height="1" fill="none" stroke="none" pointer-events="all"/></g></g></g></g></g><switch><g requiredFeatures="http://www.w3.org/TR/SVG11/feature#Extensibility"/><a transform="translate(0,-5)" xlink:href="https://www.drawio.com/doc/faq/svg-export-text-problems" target="_blank"><text text-anchor="middle" font-size="10px" x="50%" y="100%">Text is not SVG - cannot display</text></a></switch></svg>