<?xml version="1.0" encoding="UTF-8"?>
<!DOCTYPE svg PUBLIC "-//W3C//DTD SVG 1.1//EN" "http://www.w3.org/Graphics/SVG/1.1/DTD/svg11.dtd">
<svg xmlns="http://www.w3.org/2000/svg" xmlns:xlink="http://www.w3.org/1999/xlink" version="1.1" width="790px" height="580px" viewBox="-0.5 -0.5 790 580"><defs/><g><g data-cell-id="0"><g data-cell-id="1"><g data-cell-id="__bg"><g><rect x="0" y="0" width="788" height="578" fill="#0c1222" stroke="none" pointer-events="all"/></g></g><g data-cell-id="c1"><g><rect x="204" y="24" width="400" height="60" rx="7.2" ry="7.2" fill="#132239" stroke="#a78bfa" stroke-width="1.5" pointer-events="all"/></g><g><g transform="translate(-0.5 -0.5)"><switch><foreignObject pointer-events="none" width="100%" height="100%" requiredFeatures="http://www.w3.org/TR/SVG11/feature#Extensibility" style="overflow: visible; text-align: left;"><div xmlns="http://www.w3.org/1999/xhtml" style="display: flex; align-items: unsafe center; justify-content: unsafe center; width: 390px; height: 1px; padding-top: 57px; margin-left: 209px;"><div data-drawio-colors="color: #e2e8f0; " style="box-sizing: border-box; font-size: 0px; text-align: center;"><div style="display: inline-block; font-size: 12px; font-family: Helvetica; color: rgb(226, 232, 240); line-height: 1.2; pointer-events: all; font-weight: bold; white-space: normal; overflow-wrap: normal;">HQ INSTANCE<br /><br />Basic / Site-HA Design</div></div></div></foreignObject><text x="404" y="61" fill="#e2e8f0" font-family="&quot;Helvetica&quot;" font-size="12px" text-anchor="middle" font-weight="bold">HQ INSTANCE...</text></switch></g></g></g><g data-cell-id="c2"><g><rect x="184" y="114" width="440" height="60" rx="7.2" ry="7.2" fill="#132239" stroke="#38bdf8" stroke-width="1.5" pointer-events="all"/></g><g><g transform="translate(-0.5 -0.5)"><switch><foreignObject pointer-events="none" width="100%" height="100%" requiredFeatures="http://www.w3.org/TR/SVG11/feature#Extensibility" style="overflow: visible; text-align: left;"><div xmlns="http://www.w3.org/1999/xhtml" style="display: flex; align-items: unsafe center; justify-content: unsafe center; width: 430px; height: 1px; padding-top: 147px; margin-left: 189px;"><div data-drawio-colors="color: #e2e8f0; " style="box-sizing: border-box; font-size: 0px; text-align: center;"><div style="display: inline-block; font-size: 12px; font-family: Helvetica; color: rgb(226, 232, 240); line-height: 1.2; pointer-events: all; font-weight: bold; white-space: normal; overflow-wrap: normal;">VCF Fleet Control Plane<br /><br />first Instance in the fleet: VCF Operations + VCF Automation</div></div></div></foreignObject><text x="404" y="151" fill="#e2e8f0" font-family="&quot;Helvetica&quot;" font-size="12px" text-anchor="middle" font-weight="bold">VCF Fleet Control Plane...</text></switch></g></g></g><g data-cell-id="c3"><g><rect x="224" y="204" width="360" height="50" rx="6" ry="6" fill="#132239" stroke="#38bdf8" stroke-width="1.5" pointer-events="all"/></g><g><g transform="translate(-0.5 -0.5)"><switch><foreignObject pointer-events="none" width="100%" height="100%" requiredFeatures="http://www.w3.org/TR/SVG11/feature#Extensibility" style="overflow: visible; text-align: left;"><div xmlns="http://www.w3.org/1999/xhtml" style="display: flex; align-items: unsafe center; justify-content: unsafe center; width: 350px; height: 1px; padding-top: 232px; margin-left: 229px;"><div data-drawio-colors="color: #e2e8f0; " style="box-sizing: border-box; font-size: 0px; text-align: center;"><div style="display: inline-block; font-size: 13px; font-family: Helvetica; color: rgb(226, 232, 240); line-height: 1.2; pointer-events: all; font-weight: bold; white-space: normal; overflow-wrap: normal;">Management Domain</div></div></div></foreignObject><text x="404" y="236" fill="#e2e8f0" font-family="&quot;Helvetica&quot;" font-size="13px" text-anchor="middle" font-weight="bold">Management Domain</text></switch></g></g></g><g data-cell-id="c4"><g><rect x="104" y="304" width="260" height="60" rx="7.2" ry="7.2" fill="#132239" stroke="#38bdf8" stroke-width="1.5" pointer-events="all"/></g><g><g transform="translate(-0.5 -0.5)"><switch><foreignObject pointer-events="none" width="100%" height="100%" requiredFeatures="http://www.w3.org/TR/SVG11/feature#Extensibility" style="overflow: visible; text-align: left;"><div xmlns="http://www.w3.org/1999/xhtml" style="display: flex; align-items: unsafe center; justify-content: unsafe center; width: 250px; height: 1px; padding-top: 337px; margin-left: 109px;"><div data-drawio-colors="color: #e2e8f0; " style="box-sizing: border-box; font-size: 0px; text-align: center;"><div style="display: inline-block; font-size: 13px; font-family: Helvetica; color: rgb(226, 232, 240); line-height: 1.2; pointer-events: all; font-weight: bold; white-space: normal; overflow-wrap: normal;">Workload Domain A</div></div></div></foreignObject><text x="234" y="341" fill="#e2e8f0" font-family="&quot;Helvetica&quot;" font-size="13px" text-anchor="middle" font-weight="bold">Workload Domain A</text></switch></g></g></g><g data-cell-id="c5"><g><rect x="444" y="304" width="260" height="60" rx="7.2" ry="7.2" fill="#132239" stroke="#38bdf8" stroke-width="1.5" pointer-events="all"/></g><g><g transform="translate(-0.5 -0.5)"><switch><foreignObject pointer-events="none" width="100%" height="100%" requiredFeatures="http://www.w3.org/TR/SVG11/feature#Extensibility" style="overflow: visible; text-align: left;"><div xmlns="http://www.w3.org/1999/xhtml" style="display: flex; align-items: unsafe center; justify-content: unsafe center; width: 250px; height: 1px; padding-top: 337px; margin-left: 449px;"><div data-drawio-colors="color: #e2e8f0; " style="box-sizing: border-box; font-size: 0px; text-align: center;"><div style="display: inline-block; font-size: 13px; font-family: Helvetica; color: rgb(226, 232, 240); line-height: 1.2; pointer-events: all; font-weight: bold; white-space: normal; overflow-wrap: normal;">Workload Domain B</div></div></div></foreignObject><text x="574" y="341" fill="#e2e8f0" font-family="&quot;Helvetica&quot;" font-size="13px" text-anchor="middle" font-weight="bold">Workload Domain B</text></switch></g></g></g><g data-cell-id="c6"><g><rect x="24" y="404" width="300" height="90" rx="10.8" ry="10.8" fill="#132239" stroke="#38bdf8" stroke-width="1.5" pointer-events="all"/></g><g><g transform="translate(-0.5 -0.5)"><switch><foreignObject pointer-events="none" width="100%" height="100%" requiredFeatures="http://www.w3.org/TR/SVG11/feature#Extensibility" style="overflow: visible; text-align: left;"><div xmlns="http://www.w3.org/1999/xhtml" style="display: flex; align-items: unsafe center; justify-content: unsafe center; width: 290px; height: 1px; padding-top: 466px; margin-left: 29px;"><div data-drawio-colors="color: #e2e8f0; " style="box-sizing: border-box; font-size: 0px; text-align: center;"><div style="display: inline-block; font-size: 12px; font-family: Helvetica; color: rgb(226, 232, 240); line-height: 1.2; pointer-events: all; font-weight: bold; white-space: normal; overflow-wrap: normal;">Zone A (Preferred)<br /><br />ESX Hosts</div></div></div></foreignObject><text x="174" y="470" fill="#e2e8f0" font-family="&quot;Helvetica&quot;" font-size="12px" text-anchor="middle" font-weight="bold">Zone A (Preferred)...</text></switch></g></g></g><g data-cell-id="c7"><g><path d="M 162 412 L 162 413.25 L 162 436 L 186 436 L 186 412 Z M 162.65 414.5 L 185.35 414.5 L 185.35 433.5 L 162.65 433.5 Z M 174.9 416.32 L 174.9 417.57 L 174.9 431.6 L 182.25 431.6 L 182.25 416.32 Z M 164.62 416.36 L 164.62 417.61 L 164.62 431.64 L 171.95 431.64 L 171.95 416.36 Z M 175.55 418.82 L 181.59 418.82 L 181.59 422.72 L 175.55 422.72 Z M 165.27 418.86 L 171.29 418.86 L 171.29 422.72 L 165.27 422.72 Z M 173.44 419.67 C 172.82 419.67 172.32 421.61 172.32 423.98 C 172.32 426.35 172.82 428.29 173.44 428.29 C 174.06 428.29 174.57 426.35 174.57 423.98 C 174.57 421.61 174.06 419.67 173.44 419.67 Z M 182.59 421.32 L 182.59 422.57 L 182.59 428.1 L 185.15 428.1 L 185.15 421.32 Z M 163.58 422.05 C 163.2 422.05 162.9 423.22 162.9 424.65 C 162.9 426.08 163.2 427.24 163.58 427.24 C 163.76 427.24 163.93 426.97 164.06 426.48 C 164.18 426 164.25 425.34 164.25 424.65 C 164.25 423.96 164.18 423.3 164.06 422.81 C 163.93 422.33 163.76 422.05 163.58 422.05 Z M 173.44 422.16 C 173.71 422.16 173.92 422.96 173.92 423.98 C 173.92 425 173.71 425.8 173.44 425.8 C 173.18 425.8 172.97 425 172.97 423.98 C 172.97 422.96 173.18 422.16 173.44 422.16 Z M 183.24 423.81 L 184.5 423.81 L 184.5 425.6 L 183.24 425.6 Z M 165.27 425.22 L 171.29 425.22 L 171.29 429.14 L 165.27 429.14 Z M 175.55 425.22 L 181.59 425.22 L 181.59 429.1 L 175.55 429.1 Z" fill="#38bdf8" stroke="none" pointer-events="all"/></g></g><g data-cell-id="c8"><g><rect x="464" y="404" width="300" height="90" rx="10.8" ry="10.8" fill="#132239" stroke="#38bdf8" stroke-width="1.5" pointer-events="all"/></g><g><g transform="translate(-0.5 -0.5)"><switch><foreignObject pointer-events="none" width="100%" height="100%" requiredFeatures="http://www.w3.org/TR/SVG11/feature#Extensibility" style="overflow: visible; text-align: left;"><div xmlns="http://www.w3.org/1999/xhtml" style="display: flex; align-items: unsafe center; justify-content: unsafe center; width: 290px; height: 1px; padding-top: 466px; margin-left: 469px;"><div data-drawio-colors="color: #e2e8f0; " style="box-sizing: border-box; font-size: 0px; text-align: center;"><div style="display: inline-block; font-size: 12px; font-family: Helvetica; color: rgb(226, 232, 240); line-height: 1.2; pointer-events: all; font-weight: bold; white-space: normal; overflow-wrap: normal;">Zone B (Secondary)<br /><br />ESX Hosts</div></div></div></foreignObject><text x="614" y="470" fill="#e2e8f0" font-family="&quot;Helvetica&quot;" font-size="12px" text-anchor="middle" font-weight="bold">Zone B (Secondary)...</text></switch></g></g></g><g data-cell-id="c9"><g><path d="M 602 412 L 602 413.25 L 602 436 L 626 436 L 626 412 Z M 602.65 414.5 L 625.35 414.5 L 625.35 433.5 L 602.65 433.5 Z M 614.9 416.32 L 614.9 417.57 L 614.9 431.6 L 622.25 431.6 L 622.25 416.32 Z M 604.62 416.36 L 604.62 417.61 L 604.62 431.64 L 611.95 431.64 L 611.95 416.36 Z M 615.55 418.82 L 621.59 418.82 L 621.59 422.72 L 615.55 422.72 Z M 605.27 418.86 L 611.29 418.86 L 611.29 422.72 L 605.27 422.72 Z M 613.44 419.67 C 612.82 419.67 612.32 421.61 612.32 423.98 C 612.32 426.35 612.82 428.29 613.44 428.29 C 614.06 428.29 614.57 426.35 614.57 423.98 C 614.57 421.61 614.06 419.67 613.44 419.67 Z M 622.59 421.32 L 622.59 422.57 L 622.59 428.1 L 625.15 428.1 L 625.15 421.32 Z M 603.58 422.05 C 603.2 422.05 602.9 423.22 602.9 424.65 C 602.9 426.08 603.2 427.24 603.58 427.24 C 603.95 427.24 604.25 426.08 604.25 424.65 C 604.25 423.22 603.95 422.05 603.58 422.05 Z M 613.44 422.16 C 613.71 422.16 613.92 422.96 613.92 423.98 C 613.92 425 613.71 425.8 613.44 425.8 C 613.18 425.8 612.97 425 612.97 423.98 C 612.97 422.96 613.18 422.16 613.44 422.16 Z M 623.24 423.81 L 624.5 423.81 L 624.5 425.6 L 623.24 425.6 Z M 605.27 425.22 L 611.29 425.22 L 611.29 429.14 L 605.27 429.14 Z M 615.55 425.22 L 621.59 425.22 L 621.59 429.1 L 615.55 429.1 Z" fill="#38bdf8" stroke="none" pointer-events="all"/></g></g><g data-cell-id="c10"><g><rect x="24" y="514" width="740" height="40" rx="4.8" ry="4.8" fill="none" stroke="#94a3b8" stroke-width="1.5" pointer-events="all"/></g><g><g transform="translate(-0.5 -0.5)"><switch><foreignObject pointer-events="none" width="100%" height="100%" requiredFeatures="http://www.w3.org/TR/SVG11/feature#Extensibility" style="overflow: visible; text-align: left;"><div xmlns="http://www.w3.org/1999/xhtml" style="display: flex; align-items: unsafe center; justify-content: unsafe center; width: 730px; height: 1px; padding-top: 537px; margin-left: 29px;"><div data-drawio-colors="color: #e2e8f0; " style="box-sizing: border-box; font-size: 0px; text-align: center;"><div style="display: inline-block; font-size: 12px; font-family: Helvetica; color: rgb(226, 232, 240); line-height: 1.2; pointer-events: all; white-space: normal; overflow-wrap: normal;">vSAN Stretched Cluster  |  NSX Stretched Segments  |  vSphere HA</div></div></div></foreignObject><text x="394" y="541" fill="#e2e8f0" font-family="&quot;Helvetica&quot;" font-size="12px" text-anchor="middle">vSAN Stretched Cluster  |  NSX Stretched Segments  |  vSphere HA</text></switch></g></g></g><g data-cell-id="c11"><g><path d="M 404 84 L 404 103.76" fill="none" stroke="#38bdf8" stroke-width="2" stroke-miterlimit="10" pointer-events="stroke"/><path d="M 404 111.76 L 401.33 103.76 L 406.67 103.76 Z" fill="#38bdf8" stroke="#38bdf8" stroke-width="2" stroke-miterlimit="10" pointer-events="all"/></g></g><g data-cell-id="c12"><g><path d="M 404 174 L 404 193.76" fill="none" stroke="#38bdf8" stroke-width="2" stroke-miterlimit="10" pointer-events="stroke"/><path d="M 404 201.76 L 401.33 193.76 L 406.67 193.76 Z" fill="#38bdf8" stroke="#38bdf8" stroke-width="2" stroke-miterlimit="10" pointer-events="all"/></g></g><g data-cell-id="c13"><g><path d="M 260 254 L 260 269 Q 260 279 250 279 L 242 279 Q 234 279 234 286.38 L 234 293.76" fill="none" stroke="#38bdf8" stroke-width="2" stroke-miterlimit="10" pointer-events="stroke"/><path d="M 234 301.76 L 231.33 293.76 L 236.67 293.76 Z" fill="#38bdf8" stroke="#38bdf8" stroke-width="2" stroke-miterlimit="10" pointer-events="all"/></g></g><g data-cell-id="c14"><g><path d="M 548 254 L 548 269 Q 548 279 558 279 L 566 279 Q 574 279 574 286.38 L 574 293.76" fill="none" stroke="#38bdf8" stroke-width="2" stroke-miterlimit="10" pointer-events="stroke"/><path d="M 574 301.76 L 571.33 293.76 L 576.67 293.76 Z" fill="#38bdf8" stroke="#38bdf8" stroke-width="2" stroke-miterlimit="10" pointer-events="all"/></g></g><g data-cell-id="c15"><g><path d="M 174 364 L 174 393.76" fill="none" stroke="#38bdf8" stroke-width="2" stroke-miterlimit="10" stroke-dasharray="6 6" pointer-events="stroke"/><path d="M 174 401.76 L 171.33 393.76 L 176.67 393.76 Z" fill="#38bdf8" stroke="#38bdf8" stroke-width="2" stroke-miterlimit="10" pointer-events="all"/></g></g><g data-cell-id="c16"><g><path d="M 614 364 L 614 393.76" fill="none" stroke="#38bdf8" stroke-width="2" stroke-miterlimit="10" stroke-dasharray="6 6" pointer-events="stroke"/><path d="M 614 401.76 L 611.33 393.76 L 616.67 393.76 Z" fill="#38bdf8" stroke="#38bdf8" stroke-width="2" stroke-miterlimit="10" pointer-events="all"/></g></g><g data-cell-id="__margin_tl"><g><rect x="0" y="0" width="1" height="1" fill="none" stroke="none" pointer-events="all"/></g></g><g data-cell-id="__margin_br"><g><rect x="788" y="578" width="1" height="1" fill="none" stroke="none" pointer-events="all"/></g></g></g></g></g><switch><g requiredFeatures="http://www.w3.org/TR/SVG11/feature#Extensibility"/><a transform="translate(0,-5)" xlink:href="https://www.drawio.com/doc/faq/svg-export-text-problems" target="_blank"><text text-anchor="middle" font-size="10px" x="50%" y="100%">Text is not SVG - cannot display</text></a></switch></svg>