<?xml version="1.0" encoding="UTF-8"?>
<!DOCTYPE svg PUBLIC "-//W3C//DTD SVG 1.1//EN" "http://www.w3.org/Graphics/SVG/1.1/DTD/svg11.dtd">
<svg xmlns="http://www.w3.org/2000/svg" xmlns:xlink="http://www.w3.org/1999/xlink" version="1.1" width="930px" height="610px" viewBox="-0.5 -0.5 930 610"><defs/><g><g data-cell-id="0"><g data-cell-id="1"><g data-cell-id="__bg"><g><rect x="0" y="0" width="928" height="608" fill="#0c1222" stroke="none" pointer-events="all"/></g></g><g data-cell-id="c1"><g><rect x="24" y="24" width="880" height="80" rx="9.6" ry="9.6" fill="#132239" stroke="#38bdf8" stroke-width="1.5" pointer-events="all"/></g><g><g transform="translate(-0.5 -0.5)"><switch><foreignObject pointer-events="none" width="100%" height="100%" requiredFeatures="http://www.w3.org/TR/SVG11/feature#Extensibility" style="overflow: visible; text-align: left;"><div xmlns="http://www.w3.org/1999/xhtml" style="display: flex; align-items: unsafe center; justify-content: unsafe center; width: 870px; height: 1px; padding-top: 67px; margin-left: 29px;"><div data-drawio-colors="color: #e2e8f0; " style="box-sizing: border-box; font-size: 0px; text-align: center;"><div style="display: inline-block; font-size: 12px; font-family: Helvetica; color: rgb(226, 232, 240); line-height: 1.2; pointer-events: all; font-weight: bold; white-space: normal; overflow-wrap: normal;">LAYER 1 - Physical Network Security<br /><br />ACLs / Port Security, BGP route filtering, MACsec (optional)</div></div></div></foreignObject><text x="464" y="71" fill="#e2e8f0" font-family="&quot;Helvetica&quot;" font-size="12px" text-anchor="middle" font-weight="bold">LAYER 1 - Physical Network Security...</text></switch></g></g></g><g data-cell-id="c2"><g><rect x="24" y="134" width="880" height="90" rx="10.8" ry="10.8" fill="#132239" stroke="#38bdf8" stroke-width="1.5" pointer-events="all"/></g><g><g transform="translate(-0.5 -0.5)"><switch><foreignObject pointer-events="none" width="100%" height="100%" requiredFeatures="http://www.w3.org/TR/SVG11/feature#Extensibility" style="overflow: visible; text-align: left;"><div xmlns="http://www.w3.org/1999/xhtml" style="display: flex; align-items: unsafe center; justify-content: unsafe center; width: 870px; height: 1px; padding-top: 196px; margin-left: 29px;"><div data-drawio-colors="color: #e2e8f0; " style="box-sizing: border-box; font-size: 0px; text-align: center;"><div style="display: inline-block; font-size: 12px; font-family: Helvetica; color: rgb(226, 232, 240); line-height: 1.2; pointer-events: all; font-weight: bold; white-space: normal; overflow-wrap: normal;">LAYER 2 - NSX Edge / North-South Security<br /><br />vDefend Gateway Firewall, NAT / LB / VPN, BGP route filters</div></div></div></foreignObject><text x="464" y="200" fill="#e2e8f0" font-family="&quot;Helvetica&quot;" font-size="12px" text-anchor="middle" font-weight="bold">LAYER 2 - NSX Edge / North-South Security...</text></switch></g></g></g><g data-cell-id="c3"><g><path d="M 453.87 142 C 452.84 142 452 142.81 452 143.8 L 452 164.2 C 452 165.19 452.84 166 453.87 166 L 474.13 166 C 475.16 166 476 165.19 476 164.2 L 476 143.8 C 476 142.81 475.16 142 474.13 142 Z M 453.87 142.87 L 463.75 142.87 L 463.75 147.81 L 452.9 147.81 L 452.9 143.8 C 452.9 143.28 453.32 142.87 453.87 142.87 Z M 464.65 142.87 L 474.13 142.87 C 474.68 142.87 475.1 143.28 475.1 143.8 L 475.1 147.81 L 464.65 147.81 Z M 452.9 148.67 L 457.9 148.67 L 457.9 153.57 L 452.9 153.57 Z M 458.79 148.67 L 469.6 148.67 L 469.6 153.57 L 458.79 153.57 Z M 470.5 148.67 L 475.1 148.67 L 475.1 153.57 L 470.5 153.57 Z M 452.9 154.44 L 463.75 154.44 L 463.75 159.34 L 452.9 159.34 Z M 464.65 154.44 L 475.1 154.44 L 475.1 159.34 L 464.65 159.34 Z M 452.9 160.2 L 457.9 160.2 L 457.9 165.13 L 453.87 165.13 C 453.32 165.13 452.9 164.72 452.9 164.2 Z M 458.79 160.2 L 469.6 160.2 L 469.6 165.13 L 458.79 165.13 Z M 470.5 160.2 L 475.1 160.2 L 475.1 164.2 C 475.1 164.72 474.68 165.13 474.13 165.13 L 470.5 165.13 Z" fill="#38bdf8" stroke="none" pointer-events="all"/></g></g><g data-cell-id="c4"><g><rect x="24" y="264" width="420" height="100" rx="12" ry="12" fill="#132239" stroke="#38bdf8" stroke-width="1.5" pointer-events="all"/></g><g><g transform="translate(-0.5 -0.5)"><switch><foreignObject pointer-events="none" width="100%" height="100%" requiredFeatures="http://www.w3.org/TR/SVG11/feature#Extensibility" style="overflow: visible; text-align: left;"><div xmlns="http://www.w3.org/1999/xhtml" style="display: flex; align-items: unsafe center; justify-content: unsafe center; width: 410px; height: 1px; padding-top: 317px; margin-left: 29px;"><div data-drawio-colors="color: #e2e8f0; " style="box-sizing: border-box; font-size: 0px; text-align: center;"><div style="display: inline-block; font-size: 12px; font-family: Helvetica; color: rgb(226, 232, 240); line-height: 1.2; pointer-events: all; font-weight: bold; white-space: normal; overflow-wrap: normal;">LAYER 3 - VPC-1 (Tenant A)<br /><br />Private + Public/NAT subnets No cross-VPC without TGW attach</div></div></div></foreignObject><text x="234" y="321" fill="#e2e8f0" font-family="&quot;Helvetica&quot;" font-size="12px" text-anchor="middle" font-weight="bold">LAYER 3 - VPC-1 (Tenant A)...</text></switch></g></g></g><g data-cell-id="c5"><g><rect x="484" y="264" width="420" height="100" rx="12" ry="12" fill="#132239" stroke="#38bdf8" stroke-width="1.5" pointer-events="all"/></g><g><g transform="translate(-0.5 -0.5)"><switch><foreignObject pointer-events="none" width="100%" height="100%" requiredFeatures="http://www.w3.org/TR/SVG11/feature#Extensibility" style="overflow: visible; text-align: left;"><div xmlns="http://www.w3.org/1999/xhtml" style="display: flex; align-items: unsafe center; justify-content: unsafe center; width: 410px; height: 1px; padding-top: 317px; margin-left: 489px;"><div data-drawio-colors="color: #e2e8f0; " style="box-sizing: border-box; font-size: 0px; text-align: center;"><div style="display: inline-block; font-size: 12px; font-family: Helvetica; color: rgb(226, 232, 240); line-height: 1.2; pointer-events: all; font-weight: bold; white-space: normal; overflow-wrap: normal;">LAYER 3 - VPC-2 (Tenant B)<br /><br />Private + Public/NAT subnets No cross-VPC without TGW attach</div></div></div></foreignObject><text x="694" y="321" fill="#e2e8f0" font-family="&quot;Helvetica&quot;" font-size="12px" text-anchor="middle" font-weight="bold">LAYER 3 - VPC-2 (Tenant B)...</text></switch></g></g></g><g data-cell-id="c6"><g><rect x="274" y="394" width="380" height="60" rx="7.2" ry="7.2" fill="#132239" stroke="#38bdf8" stroke-width="1.5" pointer-events="all"/></g><g><g transform="translate(-0.5 -0.5)"><switch><foreignObject pointer-events="none" width="100%" height="100%" requiredFeatures="http://www.w3.org/TR/SVG11/feature#Extensibility" style="overflow: visible; text-align: left;"><div xmlns="http://www.w3.org/1999/xhtml" style="display: flex; align-items: unsafe center; justify-content: unsafe center; width: 370px; height: 1px; padding-top: 427px; margin-left: 279px;"><div data-drawio-colors="color: #e2e8f0; " style="box-sizing: border-box; font-size: 0px; text-align: center;"><div style="display: inline-block; font-size: 13px; font-family: Helvetica; color: rgb(226, 232, 240); line-height: 1.2; pointer-events: all; font-weight: bold; white-space: normal; overflow-wrap: normal;">Transit Gateway (CTGW / DTGW)</div></div></div></foreignObject><text x="464" y="431" fill="#e2e8f0" font-family="&quot;Helvetica&quot;" font-size="13px" text-anchor="middle" font-weight="bold">Transit Gateway (CTGW / DTGW)</text></switch></g></g></g><g data-cell-id="c7"><g><rect x="24" y="494" width="880" height="90" rx="10.8" ry="10.8" fill="#132239" stroke="#38bdf8" stroke-width="1.5" pointer-events="all"/></g><g><g transform="translate(-0.5 -0.5)"><switch><foreignObject pointer-events="none" width="100%" height="100%" requiredFeatures="http://www.w3.org/TR/SVG11/feature#Extensibility" style="overflow: visible; text-align: left;"><div xmlns="http://www.w3.org/1999/xhtml" style="display: flex; align-items: unsafe center; justify-content: unsafe center; width: 870px; height: 1px; padding-top: 556px; margin-left: 29px;"><div data-drawio-colors="color: #e2e8f0; " style="box-sizing: border-box; font-size: 0px; text-align: center;"><div style="display: inline-block; font-size: 12px; font-family: Helvetica; color: rgb(226, 232, 240); line-height: 1.2; pointer-events: all; font-weight: bold; white-space: normal; overflow-wrap: normal;">LAYER 4 - vDefend Distributed Firewall<br /><br />Enforced in ESX kernel datapath at the vNIC EDP Standard mode by default (VCF 9.0)</div></div></div></foreignObject><text x="464" y="560" fill="#e2e8f0" font-family="&quot;Helvetica&quot;" font-size="12px" text-anchor="middle" font-weight="bold">LAYER 4 - vDefend Distributed Firewall...</text></switch></g></g></g><g data-cell-id="c8"><g><path d="M 453.87 502 C 452.84 502 452 502.81 452 503.8 L 452 524.2 C 452 525.19 452.84 526 453.87 526 L 474.13 526 C 475.16 526 476 525.19 476 524.2 L 476 503.8 C 476 502.81 475.16 502 474.13 502 Z M 453.87 502.87 L 463.75 502.87 L 463.75 507.81 L 452.9 507.81 L 452.9 503.8 C 452.9 503.28 453.32 502.87 453.87 502.87 Z M 464.65 502.87 L 474.13 502.87 C 474.68 502.87 475.1 503.28 475.1 503.8 L 475.1 507.81 L 464.65 507.81 Z M 452.9 508.67 L 457.9 508.67 L 457.9 513.57 L 452.9 513.57 Z M 458.79 508.67 L 469.6 508.67 L 469.6 513.57 L 458.79 513.57 Z M 470.5 508.67 L 475.1 508.67 L 475.1 513.57 L 470.5 513.57 Z M 452.9 514.44 L 463.75 514.44 L 463.75 519.34 L 452.9 519.34 Z M 464.65 514.44 L 475.1 514.44 L 475.1 519.34 L 464.65 519.34 Z M 452.9 520.2 L 457.9 520.2 L 457.9 525.13 L 453.87 525.13 C 453.32 525.13 452.9 524.72 452.9 524.2 Z M 458.79 520.2 L 469.6 520.2 L 469.6 525.13 L 458.79 525.13 Z M 470.5 520.2 L 475.1 520.2 L 475.1 524.2 C 475.1 524.72 474.68 525.13 474.13 525.13 L 470.5 525.13 Z" fill="#38bdf8" stroke="none" pointer-events="all"/></g></g><g data-cell-id="c9"><g><path d="M 464 104 L 464 123.76" fill="none" stroke="#38bdf8" stroke-width="2" stroke-miterlimit="10" pointer-events="stroke"/><path d="M 464 131.76 L 461.33 123.76 L 466.67 123.76 Z" fill="#38bdf8" stroke="#38bdf8" stroke-width="2" stroke-miterlimit="10" pointer-events="all"/></g></g><g data-cell-id="c10"><g><path d="M 234 224 L 234 253.76" fill="none" stroke="#38bdf8" stroke-width="2" stroke-miterlimit="10" pointer-events="stroke"/><path d="M 234 261.76 L 231.33 253.76 L 236.67 253.76 Z" fill="#38bdf8" stroke="#38bdf8" stroke-width="2" stroke-miterlimit="10" pointer-events="all"/></g></g><g data-cell-id="c11"><g><path d="M 694 224 L 694 253.76" fill="none" stroke="#38bdf8" stroke-width="2" stroke-miterlimit="10" pointer-events="stroke"/><path d="M 694 261.76 L 691.33 253.76 L 696.67 253.76 Z" fill="#38bdf8" stroke="#38bdf8" stroke-width="2" stroke-miterlimit="10" pointer-events="all"/></g></g><g data-cell-id="c12"><g><path d="M 402 364 L 402 374 Q 402 384 412 384 L 454 384 Q 464 384 464 383.88 L 464 383.76" fill="none" stroke="#38bdf8" stroke-width="2" stroke-miterlimit="10" pointer-events="stroke"/><path d="M 464 391.76 L 461.33 383.76 L 466.67 383.76 Z" fill="#38bdf8" stroke="#38bdf8" stroke-width="2" stroke-miterlimit="10" pointer-events="all"/></g><g><g transform="translate(-0.5 -0.5)"><switch><foreignObject pointer-events="none" width="100%" height="100%" requiredFeatures="http://www.w3.org/TR/SVG11/feature#Extensibility" style="overflow: visible; text-align: left;"><div xmlns="http://www.w3.org/1999/xhtml" style="display: flex; align-items: unsafe center; justify-content: unsafe center; width: 1px; height: 1px; padding-top: 384px; margin-left: 428px;"><div data-drawio-colors="color: #e2e8f0; background-color: #0c1222; " style="box-sizing: border-box; font-size: 0px; text-align: center;"><div style="display: inline-block; font-size: 11px; font-family: Helvetica; color: rgb(226, 232, 240); line-height: 1.2; pointer-events: all; background-color: rgb(12, 18, 34); white-space: nowrap;">explicit attachment only</div></div></div></foreignObject><text x="428" y="387" fill="#e2e8f0" font-family="&quot;Helvetica&quot;" font-size="11px" text-anchor="middle">explicit attachment only</text></switch></g></g></g><g data-cell-id="c13"><g><path d="M 526 364 L 526 374 Q 526 384 516 384 L 474 384 Q 464 384 464 383.88 L 464 383.76" fill="none" stroke="#38bdf8" stroke-width="2" stroke-miterlimit="10" pointer-events="stroke"/><path d="M 464 391.76 L 461.33 383.76 L 466.67 383.76 Z" fill="#38bdf8" stroke="#38bdf8" stroke-width="2" stroke-miterlimit="10" pointer-events="all"/></g></g><g data-cell-id="c14"><g><path d="M 464 454 L 464 483.76" fill="none" stroke="#38bdf8" stroke-width="2" stroke-miterlimit="10" pointer-events="stroke"/><path d="M 464 491.76 L 461.33 483.76 L 466.67 483.76 Z" fill="#38bdf8" stroke="#38bdf8" stroke-width="2" stroke-miterlimit="10" pointer-events="all"/></g></g><g data-cell-id="__margin_tl"><g><rect x="0" y="0" width="1" height="1" fill="none" stroke="none" pointer-events="all"/></g></g><g data-cell-id="__margin_br"><g><rect x="928" y="608" width="1" height="1" fill="none" stroke="none" pointer-events="all"/></g></g></g></g></g><switch><g requiredFeatures="http://www.w3.org/TR/SVG11/feature#Extensibility"/><a transform="translate(0,-5)" xlink:href="https://www.drawio.com/doc/faq/svg-export-text-problems" target="_blank"><text text-anchor="middle" font-size="10px" x="50%" y="100%">Text is not SVG - cannot display</text></a></switch></svg>